<svg width="1440" height="567" viewBox="0 0 1440 567" fill="none" xmlns="http://www.w3.org/2000/svg">
<path d="M-302 1.341C-160.338 79.7699 -60.5505 177.356 -28.5512 268.745C-16.7865 302.337 -13.6696 335.379 8.81102 369.549C12.2049 374.705 16.8554 380.448 25.8991 384.004C38.9897 389.149 52.9709 386.798 63.3306 383.994C145.902 361.686 216.371 330.715 271.346 292.556C288.84 280.424 305.077 267.396 329.665 259.157C354.243 250.909 389.29 248.066 424.97 256.864C481.706 270.856 515.378 306.394 534.425 336.497C579.288 407.391 594.605 476.81 628.86 547.308C648.916 588.57 679.481 633.6 745.063 667.423C801.621 696.592 876.563 712.366 940.759 713.6C996.506 714.679 1044.54 705.949 1091.67 697.411C1222.82 673.648 1355.81 650.637 1502.61 642.282" stroke="#427EFF" stroke-width="2" stroke-miterlimit="3"/>
<path d="M-295.816 11.8926C-186.876 69.5555 -102.257 138.348 -53.6046 206.871C-39.5739 226.972 -28.6107 247.054 -21.0017 266.828C-15.6982 280.742 -11.9481 294.56 -7.57463 308.408C-3.49803 321.397 1.16235 334.416 8.24692 347.704C11.0966 353.052 14.3222 358.448 18.0525 363.883C21.5453 368.933 26.2552 374.57 35.2099 378.097C48.2708 383.252 62.153 381.209 72.4138 378.742C96.913 372.854 119.878 366.244 141.785 358.882C166.937 350.421 190.596 341.026 212.621 330.744C235.389 320.048 256.415 308.398 275.551 295.871C292.649 284.674 308.53 272.561 332.554 265.199C337.264 263.754 342.37 262.539 347.792 261.557C363.96 258.695 382.908 258.02 402.876 260.747C410.396 261.769 418.074 263.281 425.881 265.305C436.735 268.09 446.847 271.597 456.168 275.683C494.767 292.614 519.89 319.595 535.692 343.011C539.036 348.003 542.222 352.994 545.27 357.957C566.118 391.876 580.534 425.266 594.357 458.617C606.339 487.265 617.916 515.875 632.867 544.668C652.152 581.227 680.292 620.967 736.929 652.169C740.927 654.356 745.072 656.496 749.367 658.596C760.162 663.896 771.649 668.743 783.662 673.205C797.188 678.244 811.307 682.774 825.694 686.686C865.065 697.392 906.494 703.559 944.123 704.869C982.267 706.199 1016.7 703.087 1049.58 698.615C1064.34 696.63 1078.8 694.375 1093.15 692.14C1118.73 688.189 1144.31 684.277 1170.03 680.49C1209.96 674.65 1250.33 669.119 1291.4 664.32C1357.36 656.669 1425.2 650.868 1496.3 648.536" stroke="#407CFF" stroke-width="2" stroke-miterlimit="3"/>
<path d="M-289.632 22.4346C-181.384 77.0718 -96.7055 142.482 -46.8563 207.632C-32.6673 226.837 -21.4468 246.013 -13.4618 264.91C-7.93067 278.218 -3.91344 291.438 0.727156 304.698C5.03133 317.138 9.91931 329.607 17.2512 342.481C20.19 347.666 23.5047 352.908 27.2844 358.217C30.8861 363.151 35.6454 368.682 44.5011 372.19C57.5423 377.364 71.3256 375.63 81.4676 373.5C105.709 368.403 127.972 362.659 149.295 356.145C173.775 348.658 196.829 340.255 218.311 330.995C240.504 321.291 261.016 310.672 279.717 299.196C296.429 288.943 311.944 277.736 335.404 271.26C340.005 269.988 344.992 268.957 350.286 268.148C366.087 265.864 384.551 265.7 404.103 268.832C411.464 269.998 418.994 271.646 426.752 273.756C437.477 276.608 447.58 280.116 456.911 284.144C495.302 300.805 520.682 326.967 536.909 349.525C540.322 354.343 543.578 359.142 546.695 363.922C568.057 396.531 583.018 428.426 597.256 460.226C609.664 487.496 621.617 514.68 636.825 542.037C656.654 576.612 685.042 614.241 741.224 643.728C745.211 645.78 749.337 647.794 753.622 649.77C764.367 654.771 775.825 659.367 787.857 663.694C801.353 668.579 815.453 673.08 829.781 676.992C869.043 687.736 910.155 694.25 947.448 696.139C985.256 698.066 1019.3 695.763 1051.69 692.121C1066.24 690.531 1080.48 688.681 1094.58 686.859C1119.75 683.67 1144.84 680.519 1170.04 677.493C1209.17 672.858 1248.79 668.531 1289.05 664.908C1353.76 659.223 1420.27 655.32 1489.95 654.771" stroke="#3E7BFF" stroke-width="2" stroke-miterlimit="3"/>
<path d="M-283.448 32.9862C-175.902 84.588 -91.1448 146.626 -40.1082 208.403C-25.7511 226.702 -14.2733 244.982 -5.91226 262.992C-0.163469 275.702 4.14072 288.326 9.03858 300.988C13.5703 312.879 18.6958 324.799 26.2652 337.258C29.2929 342.269 32.6868 347.376 36.5358 352.551C40.2364 357.379 45.0551 362.804 53.8218 366.292C66.8431 371.486 80.5176 370.06 90.5606 368.268C114.545 363.97 136.106 359.084 156.845 353.418C180.661 346.895 203.103 339.484 224.04 331.245C245.659 322.534 265.657 312.946 283.922 302.52C300.238 293.211 315.407 282.91 338.293 277.321C342.785 276.223 347.654 275.385 352.829 274.749C368.274 273.043 386.253 273.38 405.379 276.917C412.582 278.227 419.964 280.01 427.681 282.217C438.279 285.146 448.371 288.644 457.712 292.624C495.885 309.015 521.532 334.358 538.185 356.059C541.668 360.694 544.983 365.309 548.169 369.896C570.056 401.204 585.551 431.597 600.195 461.845C613.038 487.737 625.367 513.495 640.822 539.426C661.195 572.006 689.821 607.534 745.557 635.315C749.525 637.243 753.641 639.122 757.916 640.981C768.612 645.684 780.04 650.03 792.092 654.212C805.559 658.943 819.629 663.405 833.897 667.327C873.06 678.11 913.856 684.971 950.802 687.428C988.263 689.943 1021.93 688.449 1053.84 685.655C1068.19 684.46 1082.19 683.015 1096.06 681.598C1120.81 679.17 1145.41 676.78 1170.09 674.525C1208.43 671.104 1247.29 667.963 1286.75 665.515C1350.19 661.786 1415.4 659.782 1483.65 661.034" stroke="#3C79FF" stroke-width="2" stroke-miterlimit="3"/>
<path d="M-277.253 43.5378C-170.401 92.1139 -85.574 150.769 -33.35 209.174C-18.8346 226.577 -7.09953 243.951 1.63746 261.084C7.61383 273.187 12.1852 285.213 17.3502 297.288C22.1095 308.639 27.4625 320.01 35.2793 332.055C38.3961 336.902 41.8692 341.855 45.7776 346.904C49.5771 351.616 54.4453 356.945 63.1328 360.405C76.1245 365.608 89.6999 364.5 99.6441 363.035C123.381 359.537 144.229 355.509 164.395 350.691C187.538 345.131 209.366 338.723 229.769 331.506C250.815 323.787 270.307 315.22 288.127 305.854C304.048 297.48 318.87 288.095 341.183 283.383C345.566 282.457 350.325 281.812 355.362 281.34C370.441 280.212 387.935 281.06 406.646 284.992C413.691 286.447 420.924 288.364 428.592 290.658C439.061 293.664 449.143 297.153 458.484 301.084C496.45 317.206 522.344 341.73 539.442 362.563C542.984 367.015 546.378 371.448 549.633 375.851C572.035 405.858 588.084 434.748 603.134 463.444C616.403 487.949 629.107 512.29 644.82 536.785C665.737 567.38 694.6 600.799 749.891 626.864C753.849 628.657 757.956 630.41 762.21 632.145C772.867 636.549 784.256 640.644 796.317 644.691C809.764 649.269 823.805 653.701 838.013 657.633C877.068 668.454 917.556 675.652 954.157 678.697C991.281 681.8 1024.57 681.126 1055.97 679.16C1070.12 678.36 1083.91 677.329 1097.52 676.317C1121.86 674.65 1145.97 673.031 1170.13 671.528C1207.67 669.312 1245.77 667.375 1284.43 666.103C1346.62 664.33 1410.5 664.234 1477.34 667.269" stroke="#3A77FF" stroke-width="2" stroke-miterlimit="3"/>
<path d="M-271.069 54.0798C-164.91 99.6204 -80.0232 154.894 -26.602 209.945C-11.9183 226.442 0.0740324 242.92 9.17712 259.167C15.3811 270.672 20.2295 282.101 25.6518 293.578C30.6387 304.38 36.2193 315.201 44.2834 326.832C47.4992 331.515 51.0414 336.324 55.0191 341.238C58.9176 345.844 63.8451 351.057 72.4436 354.498C85.4155 359.72 98.8822 358.921 108.717 357.793C132.197 355.085 152.343 351.925 171.925 347.955C194.395 343.358 215.619 337.943 235.478 331.756C255.94 325.04 274.928 317.495 292.313 309.188C307.847 301.759 322.323 293.279 344.052 289.453C348.327 288.702 352.967 288.249 357.875 287.95C372.598 287.391 389.607 288.75 407.892 293.086C414.769 294.686 421.864 296.738 429.492 299.118C439.842 302.192 449.905 305.681 459.256 309.564C497.014 325.416 523.165 349.121 540.689 369.096C544.3 373.375 547.763 377.615 551.078 381.826C573.994 410.532 590.587 437.918 606.053 465.063C619.757 488.19 632.828 511.105 648.808 534.164C670.259 562.764 699.369 594.082 754.225 618.433C758.173 620.1 762.26 621.719 766.505 623.337C777.112 627.442 788.471 631.287 800.552 635.2C813.969 639.623 827.99 644.017 842.129 647.958C881.085 658.808 921.257 666.363 957.511 669.977C994.299 673.677 1027.2 673.802 1058.12 672.684C1072.06 672.28 1085.62 671.653 1098.99 671.056C1122.92 670.14 1146.54 669.292 1170.18 668.55C1206.93 667.548 1244.27 666.806 1282.12 666.71C1343.04 666.893 1405.6 668.695 1471.02 673.532" stroke="#3876FF" stroke-width="2" stroke-miterlimit="3"/>
<path d="M-264.885 64.6314C-159.418 107.146 -74.4626 159.037 -19.8539 210.716C-5.01195 226.317 7.24752 241.889 16.7266 257.259C23.1482 268.157 28.2737 278.988 33.9631 289.877C39.1677 300.13 44.9957 310.412 53.2973 321.619C56.6021 326.129 60.2335 330.793 64.2606 335.582C68.258 340.072 73.2449 345.189 81.7444 348.6C94.6866 353.842 108.064 353.351 117.791 352.551C141.013 350.643 160.466 348.34 179.454 345.218C201.262 341.585 221.873 337.172 241.187 332.007C261.075 326.283 279.549 319.769 296.498 312.513C311.637 306.028 325.776 298.444 346.921 295.514C351.087 294.936 355.609 294.676 360.388 294.541C374.745 294.56 391.269 296.43 409.139 301.171C415.857 302.915 422.794 305.112 430.383 307.579C440.604 310.73 450.647 314.209 460.017 318.044C497.567 333.626 523.976 356.512 541.935 375.62C545.616 379.715 549.148 383.772 552.532 387.8C575.963 415.206 593.1 441.088 608.971 466.682C623.111 488.431 636.558 509.92 652.785 531.543C674.781 558.158 704.128 587.366 758.539 610.001C762.467 611.533 766.544 613.036 770.779 614.52C781.336 618.327 792.666 621.911 804.767 625.698C818.164 629.967 832.155 634.332 846.235 638.274C885.082 649.162 924.937 657.064 960.855 661.256C997.297 665.544 1029.82 666.488 1060.25 666.199C1073.98 666.19 1087.32 665.968 1100.45 665.785C1123.96 665.631 1147.09 665.544 1170.2 665.563C1206.14 665.766 1242.73 666.218 1279.78 667.307C1339.44 669.456 1400.69 673.157 1464.69 679.777" stroke="#3674FF" stroke-width="2" stroke-miterlimit="3"/>
<path d="M-258.701 75.1831C-153.926 114.663 -68.9115 163.181 -13.1155 211.487C1.8947 226.182 14.4016 240.858 24.2567 255.341C30.9059 265.633 36.2984 275.866 42.255 286.167C47.6872 295.871 53.7427 305.604 62.2917 316.406C65.6855 320.752 69.3961 325.271 73.4826 329.925C77.579 334.31 82.6252 339.311 91.0357 342.712C103.958 347.964 117.227 347.791 126.844 347.328C149.81 346.22 168.56 344.775 186.974 342.501C208.109 339.841 228.116 336.41 246.886 332.277C266.201 327.545 284.16 322.062 300.674 315.856C315.427 310.306 329.22 303.638 349.781 301.585C353.838 301.181 358.241 301.103 362.891 301.152C376.892 301.749 392.922 304.12 410.376 309.265C416.936 311.154 423.724 313.486 431.273 316.04C441.366 319.268 451.399 322.737 460.769 326.524C498.112 341.836 524.778 363.903 543.162 382.153C546.912 386.066 550.504 389.939 553.967 393.775C577.922 419.869 595.594 444.259 611.881 468.301C626.446 488.662 640.268 508.734 656.753 528.922C679.293 553.543 708.878 580.649 762.843 601.579C766.762 602.986 770.819 604.354 775.053 605.723C785.562 609.23 796.861 612.564 808.982 616.216C822.35 620.331 836.321 624.667 850.342 628.609C889.089 639.536 928.628 647.785 964.2 652.555C1000.31 657.43 1032.44 659.184 1062.38 659.743C1075.92 660.129 1089.02 660.321 1101.91 660.543C1125.01 661.15 1147.66 661.834 1170.24 662.615C1205.39 664.031 1241.22 665.679 1277.46 667.943C1335.87 672.048 1395.79 677.647 1458.38 686.069" stroke="#3472FF" stroke-width="2" stroke-miterlimit="3"/>
<path d="M-252.517 85.725C-148.435 122.169 -63.3507 167.315 -6.3674 212.248C8.80112 226.047 21.5751 239.827 31.8062 253.424C38.6731 263.118 44.3526 272.754 50.5665 282.457C56.2262 291.612 62.5093 300.805 71.3057 311.183C74.7886 315.365 78.5783 319.73 82.734 324.259C86.9294 328.528 92.0251 333.433 100.356 336.806C113.249 342.076 126.419 342.211 135.938 342.086C158.646 341.778 176.694 341.2 194.524 339.754C214.986 338.058 234.389 335.63 252.606 332.517C271.346 328.788 288.79 324.317 304.869 319.171C319.226 314.565 332.693 308.812 352.66 307.637C356.618 307.406 360.893 307.521 365.415 307.733C379.049 308.909 394.604 311.79 411.633 317.331C418.034 319.364 424.674 321.831 432.174 324.481C442.138 327.776 452.161 331.255 461.541 334.984C498.676 350.026 525.589 371.274 544.419 388.667C548.238 392.406 551.899 396.087 555.422 399.739C579.891 424.533 598.107 447.419 614.8 469.91C629.8 488.893 643.989 507.539 660.74 526.291C683.825 548.927 713.647 573.933 767.167 593.138C771.066 594.41 775.123 595.653 779.338 596.896C789.796 600.105 801.066 603.188 813.207 606.696C826.545 610.656 840.487 614.954 854.448 618.905C893.087 629.871 932.319 638.466 967.544 643.805C1003.3 649.278 1035.08 651.841 1064.51 653.229C1077.84 654.009 1090.72 654.607 1103.37 655.233C1126.06 656.602 1148.2 658.047 1170.27 659.589C1204.63 662.21 1239.7 665.053 1275.13 668.502C1332.27 674.563 1390.89 682.07 1452.05 692.275" stroke="#3271FF" stroke-width="2" stroke-miterlimit="3"/>
<path d="M-246.333 96.2767C-142.943 129.695 -57.79 171.458 0.380688 213.019C15.7174 225.912 28.7487 238.796 39.3459 251.506C46.4403 260.593 52.387 269.632 58.868 278.748C64.7553 287.362 71.2759 295.996 80.2998 305.97C83.8718 309.978 87.7406 314.199 91.9558 318.603C96.25 322.766 101.405 327.555 109.647 330.908C122.52 336.198 135.581 336.632 144.991 336.844C167.452 337.326 184.787 337.615 202.034 337.018C221.833 336.285 240.613 334.859 258.295 332.768C276.461 330.031 293.401 326.591 309.035 322.496C323.006 318.834 336.166 312.908 355.51 313.698C359.359 313.852 363.515 313.949 367.918 314.334C381.187 316.088 396.256 319.47 412.869 325.425C419.103 327.603 425.604 330.205 433.064 332.941C442.9 336.314 452.913 339.783 462.303 343.464C499.23 358.236 526.401 378.665 545.656 395.191C549.534 398.747 553.274 402.255 556.866 405.704C581.85 429.197 600.611 450.58 617.718 471.529C633.154 489.125 647.719 506.364 664.718 523.68C688.347 544.331 718.406 567.226 771.481 584.716C775.37 585.862 779.407 586.971 783.612 588.098C794.021 591.008 805.262 593.841 817.422 597.214C830.74 601.02 844.652 605.289 858.554 609.249C897.094 620.254 936.01 629.187 970.888 635.113C1006.31 641.174 1037.7 644.547 1066.65 646.782C1079.77 647.958 1092.42 648.97 1104.83 650.001C1127.11 652.131 1148.76 654.337 1170.31 656.64C1203.87 660.475 1238.18 664.513 1272.81 669.138C1328.7 677.156 1385.99 686.561 1445.73 698.567" stroke="#306FFF" stroke-width="2" stroke-miterlimit="3"/>
<path d="M-240.148 106.828C-137.452 137.211 -52.239 175.602 7.12897 213.79C22.624 225.787 35.9125 237.765 46.8956 249.598C54.2077 258.088 60.4414 266.529 67.1796 275.047C73.2945 283.113 80.0428 291.197 89.3141 300.757C92.9751 304.601 96.9329 308.678 101.207 312.946C105.601 316.994 110.815 321.686 118.958 325.011C131.812 330.311 144.774 331.062 154.075 331.612C176.278 332.893 192.911 334.04 209.584 334.291C228.71 334.522 246.887 334.088 264.024 333.028C281.617 331.284 298.042 328.875 313.24 325.84C326.816 323.113 339.718 318.015 358.399 319.769C362.139 320.116 366.177 320.386 370.451 320.935C383.364 323.257 397.938 327.16 414.136 333.51C420.211 335.832 426.564 338.569 433.975 341.392C443.681 344.842 453.685 348.302 463.075 351.925C499.794 366.427 527.222 386.037 546.912 401.705C550.86 405.078 554.67 408.402 558.321 411.669C583.819 433.861 603.134 453.741 620.637 473.138C636.499 489.356 651.439 505.169 668.696 521.049C692.868 539.705 723.166 560.5 775.805 576.284C779.684 577.296 783.701 578.279 787.897 579.281C798.256 581.902 809.467 584.475 821.637 587.713C834.926 591.365 848.818 595.605 862.651 599.565C901.082 610.599 939.681 619.888 974.223 626.383C1009.3 633.032 1040.31 637.223 1068.77 640.288C1081.68 641.858 1094.12 643.275 1106.28 644.72C1128.13 647.602 1149.31 650.589 1170.33 653.643C1203.1 658.683 1236.65 663.916 1270.48 669.717C1325.11 679.7 1381.08 691.003 1439.4 704.792" stroke="#2E6DFF" stroke-width="2" stroke-miterlimit="3"/>
<path d="M-233.964 117.37C-131.96 144.727 -46.6783 179.726 13.877 214.551C29.5403 225.642 43.0861 236.724 54.4353 247.671C61.975 255.553 68.4758 263.397 75.4812 271.328C81.8138 278.844 88.7994 286.389 98.3181 295.524C102.078 299.205 106.105 303.127 110.439 307.271C114.931 311.212 120.205 315.789 128.259 319.094C141.083 324.413 153.946 325.473 163.148 326.36C185.094 328.441 201.025 330.446 217.113 331.544C235.567 332.739 253.14 333.308 269.733 333.269C286.742 332.527 302.663 331.139 317.425 329.154C330.615 327.372 343.132 324.365 361.269 325.82C364.92 326.109 368.818 326.794 372.964 327.526C385.511 330.426 399.61 334.83 415.383 341.585C421.3 344.052 427.503 346.933 434.875 349.843C444.453 353.36 454.447 356.82 463.847 360.395C500.358 374.628 528.043 393.418 548.159 408.229C552.176 411.428 556.045 414.56 559.775 417.634C585.798 438.525 605.647 456.892 623.566 474.748C639.863 489.587 655.17 503.974 672.683 518.419C697.4 535.089 727.935 553.774 780.129 567.843C783.988 568.729 787.995 569.577 792.181 570.464C802.501 572.786 813.672 575.108 825.862 578.211C839.131 581.709 852.993 585.911 866.767 589.881C905.099 600.953 943.381 610.589 977.567 617.662C1012.31 624.899 1042.93 629.9 1070.9 633.812C1083.62 635.778 1095.83 637.599 1107.74 639.459C1129.18 643.101 1149.86 646.85 1170.36 650.666C1202.33 656.92 1235.14 663.347 1268.16 670.324C1321.53 682.263 1376.18 695.464 1433.09 711.056" stroke="#2C6CFF" stroke-width="2" stroke-miterlimit="3"/>
<path d="M-227.77 127.922C-126.459 152.244 -41.1174 183.87 20.6352 215.322C36.4567 225.517 50.2697 235.693 61.9948 245.763C69.7523 253.038 76.54 260.294 83.8027 267.627C90.3628 274.594 97.5859 281.59 107.342 290.321C111.191 293.828 115.297 297.615 119.701 301.624C124.292 305.449 129.615 309.93 137.59 313.216C150.394 318.555 163.148 319.923 172.241 321.137C193.93 324.009 209.168 326.88 224.673 328.827C242.464 330.995 259.423 332.546 275.472 333.539C291.907 333.789 307.313 333.433 321.641 332.498C334.434 331.65 346.644 329.588 364.168 331.901C367.72 332.373 371.5 333.24 375.507 334.136C387.697 337.615 401.302 342.529 416.659 349.689C422.408 352.301 428.473 355.317 435.805 358.313C445.255 361.908 455.238 365.358 464.648 368.884C500.952 382.847 528.884 400.809 549.445 414.762C553.532 417.778 557.47 420.727 561.269 423.618C587.807 443.208 608.2 460.072 626.525 476.376C643.247 489.828 658.94 502.798 676.711 515.807C701.972 530.483 732.744 547.067 784.493 559.421C788.342 560.172 792.339 560.895 796.505 561.656C806.776 563.68 817.917 565.752 830.127 568.72C843.366 572.063 857.209 576.236 870.913 580.206C909.136 591.316 947.112 601.3 980.952 608.951C1015.36 616.785 1045.59 622.595 1073.07 627.336C1085.58 629.697 1097.56 631.933 1109.24 634.197C1130.26 638.601 1150.46 643.121 1170.43 647.698C1201.61 655.156 1233.65 662.788 1265.87 670.94C1317.97 684.836 1371.32 699.945 1426.78 717.329" stroke="#2A6AFF" stroke-width="2" stroke-miterlimit="3"/>
<path d="M-221.586 138.474C-120.967 159.77 -35.5567 188.013 27.3832 216.093C43.3631 225.382 57.4333 234.662 69.5345 243.845C77.5195 250.523 84.5744 257.172 92.1042 263.917C98.8919 270.335 106.343 276.791 116.346 285.098C120.284 288.442 124.48 292.074 128.932 295.948C133.622 299.658 139.005 304.033 146.891 307.3C159.665 312.648 172.32 314.334 181.314 315.885C202.746 319.557 217.282 323.286 232.203 326.08C249.32 329.212 265.676 331.766 281.181 333.77C297.042 335.013 311.944 335.678 325.826 335.803C338.234 335.9 350.147 334.772 367.037 337.933C370.49 338.579 374.142 339.639 378.02 340.708C389.844 344.765 402.975 350.181 417.916 357.745C423.506 360.501 429.423 363.652 436.705 366.745C446.026 370.417 456 373.857 465.41 377.335C501.506 391.028 529.695 408.171 550.682 421.267C554.838 424.1 558.845 426.865 562.704 429.563C589.756 447.843 610.693 463.213 629.434 477.966C646.591 490.04 662.65 501.584 680.678 513.157C706.483 525.848 737.493 540.322 788.797 550.97C792.626 551.596 796.614 552.194 800.77 552.83C810.991 554.554 822.102 556.376 834.332 559.199C847.542 562.389 861.355 566.523 875.009 570.512C913.133 581.661 950.792 591.981 984.286 600.211C1018.34 608.633 1048.21 615.253 1075.2 620.842C1087.5 623.598 1099.26 626.238 1110.69 628.917C1131.3 634.082 1151.01 639.363 1170.46 644.701C1200.84 653.374 1232.13 662.191 1263.54 671.528C1314.39 687.38 1366.41 704.388 1420.46 723.564" stroke="#2868FF" stroke-width="2" stroke-miterlimit="3"/>
<path d="M-215.402 149.025C-115.476 167.286 -29.9957 192.157 34.1316 216.864C50.2796 225.257 64.6071 233.631 77.0744 241.937C85.2771 248.008 92.609 254.069 100.406 260.217C107.421 266.095 115.109 271.993 125.35 279.885C129.378 283.065 133.652 286.553 138.174 290.292C142.963 293.896 148.405 298.164 156.192 301.402C168.946 306.769 181.503 308.764 190.378 310.653C211.563 315.124 225.385 319.711 239.723 323.353C256.168 327.449 271.92 330.995 286.871 334.03C302.158 336.276 316.545 337.962 329.992 339.137C342.004 340.178 353.62 339.995 369.887 344.004C373.241 344.832 376.764 346.076 380.524 347.309C391.992 351.944 404.627 357.87 419.153 365.83C424.585 368.73 430.353 372.016 437.596 375.196C446.788 378.935 456.752 382.375 466.172 385.806C502.06 399.229 530.507 415.552 551.929 427.781C556.154 430.44 560.231 433.013 564.159 435.528C591.725 452.507 613.207 466.374 632.353 479.575C649.946 490.271 666.371 500.389 684.656 510.527C711.005 521.223 742.253 533.596 793.111 542.528C796.931 543.02 800.898 543.492 805.044 544.003C815.216 545.429 826.298 547 838.548 549.688C851.737 552.724 865.52 556.829 879.106 560.818C917.121 572.006 954.464 582.673 987.621 591.48C1021.34 600.49 1050.82 607.929 1077.32 614.347C1089.41 617.498 1100.94 620.543 1112.13 623.627C1132.34 629.553 1151.55 635.595 1170.48 641.694C1200.07 651.571 1230.59 661.593 1261.21 672.106C1310.79 689.924 1361.49 708.83 1414.13 729.798" stroke="#2667FF" stroke-width="2" stroke-miterlimit="3"/>
<path d="M-209.218 159.567C-109.994 174.802 -24.4449 196.291 40.8797 217.635C57.186 225.122 71.7807 232.6 84.6239 240.02C93.0542 245.493 100.663 250.947 108.717 256.507C115.96 261.836 123.876 267.184 134.364 274.671C138.481 277.678 142.834 281.022 147.415 284.635C152.303 288.124 157.805 292.286 165.503 295.505C178.227 300.891 190.685 303.195 199.461 305.411C220.389 310.672 233.509 316.126 247.272 320.607C263.054 325.666 278.183 330.214 292.6 334.271C307.313 337.509 321.185 340.226 334.197 342.452C345.823 344.428 357.143 345.208 372.776 350.055C376.041 351.067 379.425 352.484 383.057 353.9C394.159 359.104 406.309 365.541 420.419 373.905C425.693 376.95 431.313 380.38 438.506 383.637C447.57 387.453 457.524 390.884 466.954 394.266C502.634 407.419 531.338 422.924 553.186 434.295C557.47 436.771 561.616 439.161 565.613 441.483C593.704 457.161 615.72 469.525 635.282 481.175C653.3 490.483 670.111 499.185 688.653 507.886C715.547 516.597 747.032 526.86 797.445 534.078C801.255 534.434 805.202 534.781 809.338 535.176C819.461 536.303 830.513 537.624 842.782 540.177C855.942 543.058 869.706 547.135 883.232 551.124C921.148 562.34 958.174 573.364 990.985 582.75C1024.36 592.357 1053.47 600.596 1079.47 607.862C1091.37 611.418 1102.68 614.867 1113.62 618.356C1133.41 625.043 1152.13 631.856 1170.54 638.707C1199.33 649.798 1229.1 661.005 1258.91 672.704C1307.24 692.477 1356.62 713.282 1407.84 736.042" stroke="#2465FF" stroke-width="2" stroke-miterlimit="3"/>
<path d="M-203.034 170.119C-104.503 182.318 -18.8842 200.434 47.6277 218.406C64.1023 224.997 78.9443 231.569 92.1636 238.112C100.811 242.978 108.698 247.844 117.019 252.807C124.48 257.586 132.633 262.395 143.368 269.458C147.584 272.301 152.006 275.5 156.657 278.979C161.644 282.361 167.195 286.418 174.814 289.607C187.518 295.004 199.867 297.625 208.535 300.178C229.205 306.24 241.622 312.551 254.802 317.88C269.911 323.903 284.437 329.453 298.309 334.531C312.448 338.762 325.806 342.51 338.382 345.796C349.613 348.716 360.645 350.47 375.646 356.126C378.812 357.321 382.067 358.921 385.57 360.511C396.315 366.292 407.981 373.24 421.666 382.009C426.771 385.198 432.253 388.764 439.407 392.117C448.352 396.001 458.286 399.431 467.725 402.765C503.198 415.649 532.149 430.334 554.442 440.847C558.796 443.141 563.011 445.357 567.078 447.487C595.683 461.864 618.253 472.724 638.22 482.823C656.674 490.753 673.851 498.029 692.651 505.304C720.089 512.02 751.811 520.182 801.789 525.684C805.578 525.916 809.526 526.128 813.643 526.397C823.715 527.226 834.738 528.296 847.017 530.714C860.157 533.442 873.891 537.479 887.358 541.478C925.175 552.733 961.884 564.104 994.349 574.058C1027.39 584.253 1056.11 593.311 1081.62 601.406C1093.31 605.356 1104.39 609.211 1115.09 613.113C1134.47 620.553 1152.7 628.136 1170.59 635.758C1198.58 648.054 1227.6 660.466 1256.6 673.34C1303.67 695.069 1351.72 717.782 1401.52 742.335" stroke="#2263FF" stroke-width="2" stroke-miterlimit="3"/>
<path d="M-196.849 180.67C-99.011 189.844 -13.3331 204.568 54.376 219.177C71.0089 224.862 86.1181 230.538 99.7133 236.194C108.589 240.453 116.752 244.722 125.331 249.087C133.019 253.318 141.409 257.577 152.373 264.226C156.677 266.905 161.189 269.95 165.889 273.303C170.975 276.57 176.585 280.521 184.115 283.7C196.79 289.116 209.039 292.045 217.608 294.927C238.021 301.788 249.746 308.957 262.332 315.134C276.768 322.13 290.69 328.663 304.018 334.772C317.574 339.995 330.427 344.765 342.568 349.111C353.403 352.975 364.138 355.702 378.515 362.178C381.582 363.556 384.709 365.338 388.083 367.092C398.463 373.452 409.644 380.901 422.912 390.074C427.86 393.408 433.193 397.109 440.297 400.549C449.114 404.509 459.038 407.93 468.477 411.216C503.732 423.83 532.951 437.696 555.669 447.342C560.092 449.462 564.376 451.486 568.512 453.423C597.632 466.499 620.746 475.856 641.119 484.403C660.008 490.956 677.552 496.805 696.609 502.644C724.591 507.376 756.55 513.427 806.083 517.224C809.863 517.32 813.791 517.407 817.897 517.561C827.931 518.091 838.914 518.91 851.213 521.194C864.323 523.767 878.037 527.775 891.435 531.774C929.143 543.068 965.545 554.786 997.663 565.318C1030.37 576.101 1058.7 585.968 1083.73 594.911C1095.2 599.257 1106.07 603.516 1116.53 607.833C1135.49 616.033 1153.23 624.378 1170.6 632.762C1197.8 646.272 1226.05 659.868 1254.25 673.918C1300.05 697.604 1346.81 722.214 1395.18 748.56" stroke="#2062FF" stroke-width="2" stroke-miterlimit="3"/>
<path d="M-190.665 191.212C-93.5195 197.351 -7.77238 208.702 61.1142 219.938C77.9154 224.727 93.2818 229.507 107.243 234.277C116.346 237.938 124.776 241.61 133.622 245.377C141.538 249.068 150.156 252.778 161.367 259.013C165.76 261.518 170.351 264.428 175.111 267.647C180.295 270.807 185.965 274.652 193.396 277.803C206.051 283.238 218.202 286.466 226.652 289.694C246.807 297.355 257.83 305.382 269.842 312.407C283.615 320.366 296.924 327.902 309.708 335.032C322.689 341.257 335.038 347.049 346.733 352.445C357.182 357.244 367.611 360.973 381.365 368.248C384.333 369.819 387.331 371.775 390.577 373.703C400.6 380.641 411.286 388.6 424.139 398.169C428.928 401.647 434.113 405.483 441.178 409.019C449.866 413.057 459.78 416.468 469.229 419.696C504.276 432.04 533.752 445.087 556.906 453.876C561.398 455.812 565.752 457.653 569.947 459.407C599.582 471.173 623.24 479.036 644.028 486.032C663.343 491.197 681.272 495.629 700.576 500.033C729.103 502.77 761.3 506.72 810.387 508.802C814.157 508.773 818.066 508.725 822.172 508.754C832.156 508.995 843.109 509.553 855.428 511.693C868.509 514.102 882.193 518.091 895.541 522.1C933.15 533.432 969.236 545.487 1001.01 556.597C1033.36 567.968 1061.33 578.655 1085.85 588.435C1097.12 593.176 1107.76 597.85 1117.98 602.572C1136.53 611.533 1153.78 620.649 1170.63 629.784C1197.03 644.499 1224.53 659.3 1251.93 674.525C1296.47 700.176 1341.9 726.686 1388.86 754.823" stroke="#1E60FF" stroke-width="2" stroke-miterlimit="3"/>
<path d="M-184.481 201.764C-88.0281 204.877 -2.21169 212.846 67.8623 220.709C84.8217 224.592 100.445 228.476 114.793 232.359C124.113 235.414 132.831 238.488 141.934 241.667C150.077 244.809 158.923 247.97 170.381 253.79C174.863 256.131 179.533 258.887 184.362 261.981C189.646 265.026 195.375 268.764 202.717 271.896C215.352 277.341 227.394 280.887 235.745 284.452C255.653 292.903 265.963 301.797 277.392 309.67C290.492 318.593 303.197 327.121 315.437 335.283C327.844 342.501 339.678 349.323 350.939 355.77C360.992 361.513 371.124 366.244 384.254 374.3C387.123 376.063 389.993 378.193 393.12 380.284C402.777 387.8 412.988 396.261 425.416 406.244C430.046 409.867 435.073 413.837 442.098 417.46C450.657 421.565 460.562 424.977 470.021 428.157C504.86 440.231 534.593 452.459 558.172 460.39C562.734 462.143 567.147 463.801 571.421 465.362C601.58 475.827 625.773 482.187 646.967 487.631C666.717 491.418 685.012 494.425 704.584 497.393C733.654 498.144 766.089 499.985 814.731 500.351C818.481 500.187 822.38 500.014 826.476 499.927C836.41 499.869 847.334 500.177 859.672 502.182C872.733 504.437 886.388 508.387 899.667 512.406C937.167 523.776 972.937 536.178 1004.37 547.867C1036.39 559.835 1063.97 571.321 1088 581.94C1099.07 587.077 1109.48 592.155 1119.46 597.281C1137.58 607.004 1154.36 616.881 1170.68 626.778C1196.29 642.706 1223.02 658.702 1249.62 675.103C1292.9 702.711 1337.02 731.118 1382.56 761.048" stroke="#1C5EFF" stroke-width="2" stroke-miterlimit="3"/>
<path d="M-178.287 212.316C-82.5266 212.393 3.34915 216.989 74.6204 221.48C91.748 224.467 107.629 227.444 122.342 230.451C131.891 232.908 140.875 235.385 150.245 237.967C158.616 240.559 167.699 243.171 179.395 248.577C183.966 250.754 188.726 253.366 193.604 256.324C198.986 259.263 204.765 262.896 212.027 265.999C224.633 271.463 236.576 275.317 244.828 279.21C264.479 288.461 274.087 298.213 284.931 306.933C297.369 316.82 309.46 326.35 321.156 335.534C332.99 343.744 344.309 351.597 355.134 359.094C364.801 365.781 374.617 371.525 387.133 380.361C389.904 382.317 392.654 384.611 395.643 386.885C404.944 394.979 414.66 403.95 426.672 414.329C431.135 418.096 436.023 422.211 443.008 425.911C451.439 430.093 461.323 433.495 470.793 436.627C505.424 448.431 535.405 459.84 559.429 466.904C564.06 468.474 568.542 469.949 572.876 471.327C603.549 480.491 628.286 485.347 649.896 489.25C670.071 491.649 688.742 493.239 708.571 494.772C738.186 493.528 770.858 493.278 819.055 491.929C822.795 491.64 826.684 491.331 830.76 491.119C840.645 490.763 851.539 490.821 863.898 492.69C876.929 494.791 890.564 498.713 903.783 502.731C941.185 514.131 976.637 526.889 1007.73 539.156C1039.4 551.712 1066.6 564.017 1090.15 575.475C1101.01 581.006 1111.19 586.498 1120.93 592.029C1138.64 602.514 1154.92 613.152 1170.73 623.819C1195.54 640.952 1221.52 658.143 1247.31 675.729C1289.33 705.293 1332.12 735.609 1376.24 767.331" stroke="#1A5DFF" stroke-width="2" stroke-miterlimit="3"/>
<path d="M-172.103 222.858C-77.0351 219.899 8.90983 221.123 81.3684 222.241C98.6544 224.322 114.793 226.404 129.882 228.524C139.648 230.374 148.919 232.253 158.547 234.248C167.135 236.29 176.456 238.362 188.399 243.354C193.059 245.358 197.898 247.825 202.845 250.658C208.327 253.481 214.165 257.018 221.338 260.092C233.924 265.575 245.768 269.738 253.902 273.968C273.295 284.019 282.2 294.628 292.471 304.187C304.236 315.037 315.713 325.56 326.865 335.774C338.125 344.987 348.93 353.862 359.319 362.418C368.591 370.041 378.089 376.815 390.003 386.422C392.674 388.571 395.296 391.038 398.156 393.476C407.091 402.139 416.322 411.621 427.919 422.404C432.223 426.316 436.963 430.566 443.899 434.362C452.2 438.621 462.075 442.013 471.554 445.097C505.978 456.631 536.216 467.222 560.666 473.427C565.356 474.825 569.917 476.106 574.32 477.291C605.508 485.155 630.789 488.508 652.805 490.859C673.415 491.881 692.463 492.044 712.539 492.141C742.698 488.913 775.607 486.552 823.359 483.488C827.079 483.064 830.958 482.64 835.025 482.302C844.86 481.647 855.724 481.454 868.103 483.189C881.114 485.135 894.719 489.019 907.869 493.047C945.162 504.485 980.308 517.59 1011.05 530.425C1042.39 543.569 1069.2 556.684 1092.26 568.98C1102.91 574.906 1112.88 580.803 1122.37 586.749C1139.67 597.994 1155.45 609.404 1170.74 620.822C1194.75 639.17 1219.98 657.556 1244.96 676.317C1285.73 707.837 1327.2 740.051 1369.9 773.566" stroke="#185BFF" stroke-width="2" stroke-miterlimit="3"/>
<path d="M-165.919 233.409C-71.5435 227.425 14.4609 225.267 88.1167 223.012C105.571 224.197 121.966 225.373 137.432 226.616C147.425 227.868 156.964 229.15 166.858 230.547C175.675 232.041 185.233 233.563 197.413 238.141C202.172 239.981 207.08 242.303 212.087 245.002C217.667 247.719 223.565 251.14 230.639 254.204C243.196 259.697 254.941 264.178 262.975 268.745C282.111 279.586 290.314 291.063 300.001 301.47C311.093 313.293 321.967 324.808 332.574 336.044C343.26 346.249 353.561 356.145 363.505 365.762C372.39 374.329 381.543 382.124 392.872 392.493C395.435 394.844 397.938 397.475 400.669 400.086C409.248 409.327 417.995 419.32 429.166 430.498C433.312 434.555 437.903 438.939 444.799 442.823C452.972 447.149 462.837 450.541 472.326 453.577C506.542 464.842 537.037 474.613 561.922 479.951C566.682 481.165 571.312 482.264 575.785 483.266C607.487 489.828 633.322 491.678 655.744 492.478C676.79 492.122 696.203 490.859 716.546 489.52C747.249 484.307 780.397 479.835 827.713 475.056C831.423 474.507 835.282 473.948 839.339 473.495C849.125 472.541 859.96 472.098 872.348 473.697C885.329 475.49 898.915 479.344 912.005 483.372C949.199 494.849 984.029 508.301 1014.42 521.714C1045.42 535.455 1071.85 549.38 1094.42 562.514C1104.87 568.835 1114.62 575.137 1123.86 581.497C1140.75 593.494 1156.05 605.674 1170.81 617.855C1194.02 637.406 1218.49 656.987 1242.68 676.934C1282.17 710.42 1322.34 744.532 1363.61 779.839" stroke="#1659FF" stroke-width="2" stroke-miterlimit="3"/>
<path d="M-159.735 243.961C-66.052 234.941 20.0217 229.401 94.8649 223.783C112.477 224.062 129.14 224.342 144.971 224.698C155.183 225.344 164.998 226.028 175.16 226.837C184.204 227.791 193.99 228.765 206.417 232.927C211.266 234.604 216.253 236.772 221.329 239.345C227.008 241.947 232.965 245.271 239.95 248.307C252.487 253.819 264.123 258.608 272.049 263.503C290.937 275.144 298.438 287.478 307.541 298.733C317.97 311.52 328.23 324.038 338.293 336.285C348.396 347.482 358.191 358.41 367.7 369.077C376.19 378.588 385.006 387.405 395.752 398.545C398.205 401.088 400.59 403.893 403.192 406.668C411.405 416.487 419.667 426.981 430.422 438.573C434.41 442.775 438.853 447.294 445.7 451.274C453.744 455.678 463.599 459.06 473.088 462.047C507.096 473.042 537.849 481.984 563.159 486.475C567.988 487.506 572.678 488.421 577.22 489.231C609.447 494.482 635.816 494.829 658.643 494.087C680.114 492.343 699.904 489.664 720.504 486.899C751.742 479.691 785.136 473.119 832.007 466.624C835.708 465.94 839.547 465.256 843.594 464.678C853.34 463.425 864.135 462.731 876.543 464.186C889.505 465.824 903.051 469.65 916.082 473.688C953.167 485.203 987.68 498.992 1017.74 512.994C1048.39 527.323 1074.46 542.056 1096.52 556.029C1106.77 562.745 1116.28 569.462 1125.28 576.226C1141.76 588.985 1156.56 601.926 1170.81 614.867C1193.23 635.633 1216.94 656.409 1240.32 677.531C1278.56 712.973 1317.4 748.984 1357.26 786.093" stroke="#1458FF" stroke-width="2" stroke-miterlimit="3"/>
<path d="M-153.551 254.503C-60.5605 242.458 25.5824 233.535 101.613 224.544C119.394 223.927 136.304 223.301 152.521 222.781C162.96 222.819 173.052 222.915 183.471 223.127C192.743 223.532 202.756 223.956 215.421 227.705C220.359 229.208 225.435 231.241 230.56 233.679C236.339 236.175 242.345 239.384 249.251 242.4C261.758 247.931 273.295 253.029 281.122 258.261C299.753 270.701 306.551 283.893 315.07 295.996C324.827 309.747 334.484 323.257 344.002 336.536C353.531 348.735 362.812 360.684 371.886 372.402C379.989 382.847 388.449 392.705 398.621 404.606C400.966 407.352 403.232 410.31 405.706 413.269C413.552 423.666 421.339 434.671 431.669 446.658C435.488 451.004 439.793 455.658 446.6 459.725C454.516 464.206 464.361 467.578 473.86 470.517C507.66 481.242 538.67 489.366 564.406 492.999C569.304 493.856 574.063 494.588 578.674 495.205C611.416 499.156 638.329 498 661.572 495.706C683.478 492.584 703.644 488.479 724.492 484.278C756.273 475.085 789.905 466.403 836.331 458.202C840.012 457.393 843.851 456.574 847.878 455.88C857.575 454.328 868.33 453.384 880.768 454.704C893.7 456.188 907.226 459.975 920.198 464.022C957.184 475.576 991.38 489.713 1021.09 504.282C1051.41 519.199 1077.09 534.752 1098.67 549.563C1108.71 556.674 1118 563.796 1126.76 570.975C1142.82 584.494 1157.14 598.206 1170.86 611.899C1192.49 633.87 1215.44 655.84 1238 678.139C1274.99 715.537 1312.51 753.455 1350.94 792.347" stroke="#1256FF" stroke-width="2" stroke-miterlimit="3"/>
<path d="M-147.366 265.055C-55.0688 249.974 31.1334 237.678 108.361 225.325C126.3 223.802 143.477 222.279 160.061 220.873C170.717 220.314 181.087 219.803 191.773 219.427C201.272 219.283 211.523 219.157 224.426 222.492C229.452 223.831 234.607 225.71 239.802 228.023C245.679 230.403 251.745 233.515 258.562 236.503C271.049 242.043 282.487 247.459 290.195 253.019C308.57 266.249 314.665 280.309 322.6 293.26C331.684 307.974 340.737 322.486 349.712 336.786C358.666 349.978 367.433 362.958 376.071 375.726C383.779 387.116 391.873 397.995 401.49 410.657C403.727 413.596 405.874 416.728 408.229 419.85C415.719 430.826 423.011 442.331 432.926 454.724C436.587 459.224 440.743 464.013 447.501 468.156C455.288 472.705 465.123 476.077 474.632 478.968C508.224 489.423 539.481 496.728 565.663 499.493C570.63 500.168 575.458 500.717 580.129 501.141C613.385 503.791 640.842 501.141 664.49 497.287C686.823 492.786 707.364 487.255 728.469 481.618C760.795 470.431 794.665 459.648 840.645 449.732C844.316 448.788 848.135 447.843 852.153 447.024C861.8 445.174 872.526 443.979 884.983 445.164C897.886 446.494 911.392 450.252 924.305 454.3C961.182 465.882 995.071 480.375 1024.44 495.523C1054.41 511.037 1079.71 527.39 1100.8 543.039C1110.63 550.546 1119.69 558.072 1128.21 565.655C1143.86 579.936 1157.69 594.41 1170.89 608.874C1191.72 632.058 1213.91 655.224 1235.68 678.697C1271.4 718.052 1307.6 757.868 1344.62 798.562" stroke="#1054FF" stroke-width="2" stroke-miterlimit="3"/>
<path d="M-141.182 275.606C-49.5774 257.5 36.6941 241.822 115.109 226.095C133.207 223.677 150.651 221.248 167.61 218.965C178.495 217.799 189.141 216.69 200.085 215.727C209.811 215.033 220.29 214.368 233.44 217.288C238.555 218.464 243.789 220.188 249.043 222.376C255.02 224.64 261.145 227.647 267.863 230.624C280.33 236.184 291.66 241.908 299.269 247.806C317.386 261.836 322.778 276.753 330.14 290.552C338.56 306.23 346.991 321.735 355.431 337.066C363.812 351.25 372.064 365.252 380.266 379.079C387.588 391.414 395.306 403.314 404.37 416.747C406.487 419.889 408.526 423.184 410.752 426.48C417.876 438.024 424.684 450.05 434.182 462.847C437.685 467.491 441.692 472.416 448.411 476.655C456.069 481.281 465.895 484.644 475.404 487.477C508.788 497.662 540.303 504.147 566.909 506.055C571.946 506.547 576.844 506.913 581.583 507.154C615.354 508.503 643.356 504.34 667.419 498.944C690.187 493.056 711.094 486.109 732.467 479.036C765.337 465.863 799.444 452.97 844.979 441.339C848.63 440.269 852.439 439.19 856.447 438.255C866.045 436.106 876.741 434.661 889.218 435.711C902.101 436.887 915.577 440.616 928.421 444.663C965.199 456.285 998.772 471.124 1027.78 486.841C1057.42 502.943 1082.33 520.115 1102.93 536.602C1112.56 544.504 1121.41 552.444 1129.68 560.432C1144.91 575.475 1158.24 590.709 1170.93 605.935C1190.97 630.324 1212.4 654.694 1233.36 679.343C1267.83 720.663 1302.72 762.378 1338.31 804.854" stroke="#0E53FF" stroke-width="2" stroke-miterlimit="3"/>
<path d="M-134.998 286.148C-44.0958 265.006 42.2549 245.956 121.857 226.857C140.123 223.542 157.815 220.217 175.15 217.037C186.252 215.274 197.176 213.568 208.386 212.007C218.33 210.774 229.046 209.55 242.444 212.055C247.658 213.058 252.972 214.648 258.275 216.7C264.35 218.859 270.535 221.759 277.164 224.708C289.602 230.287 300.832 236.31 308.342 242.554C326.202 257.384 330.892 273.159 337.67 287.806C345.417 304.457 353.244 320.954 361.14 337.307C368.947 352.484 376.694 367.516 384.452 382.404C391.378 395.673 398.72 408.605 407.239 422.808C409.238 426.143 411.167 429.612 413.265 433.071C420.033 445.193 426.356 457.72 435.429 470.922C438.773 475.711 442.632 480.77 449.301 485.097C456.831 489.79 466.647 493.153 476.165 495.938C509.342 505.853 541.114 511.519 568.156 512.56C573.252 512.878 578.219 513.051 583.038 513.1C617.332 513.148 645.869 507.482 670.338 500.534C693.541 493.268 714.825 484.894 736.444 476.386C769.859 461.218 804.203 446.224 849.293 432.888C852.934 431.683 856.724 430.479 860.721 429.419C870.27 426.981 880.936 425.275 893.433 426.191C906.286 427.212 919.743 430.903 932.527 434.96C969.196 446.62 1002.45 461.806 1031.13 478.101C1060.42 494.791 1084.95 512.772 1105.06 530.098C1114.49 538.395 1123.1 546.739 1131.13 555.142C1145.95 570.946 1158.8 586.951 1170.96 602.928C1190.19 628.531 1210.87 654.087 1231.04 679.921C1264.25 723.197 1297.81 766.811 1331.98 811.089" stroke="#0C51FF" stroke-width="2" stroke-miterlimit="3"/>
<path d="M-128.804 296.7C-38.5944 272.532 47.8157 250.099 128.606 227.628C147.029 223.407 164.988 219.186 182.69 215.12C194.019 212.749 205.22 210.446 216.688 208.297C226.86 206.515 237.813 204.751 251.448 206.833C256.751 207.671 262.144 209.107 267.517 211.034C273.691 213.077 279.925 215.871 286.475 218.801C298.893 224.39 310.014 230.73 317.415 237.302C335.028 252.923 339.016 269.564 345.2 285.05C352.274 302.665 359.497 320.154 366.839 337.538C374.072 353.717 381.305 369.771 388.627 385.709C395.158 399.923 402.114 413.866 410.099 428.841C411.979 432.368 413.809 436 415.768 439.643C422.17 452.343 428.008 465.381 436.666 478.978C439.842 483.912 443.562 489.105 450.192 493.528C457.603 498.298 467.399 501.652 476.927 504.388C509.896 514.025 541.925 518.881 569.393 519.064C574.558 519.199 579.594 519.19 584.472 519.055C619.282 517.802 648.362 510.633 673.247 502.134C696.876 493.49 718.535 483.69 740.412 473.745C774.371 456.593 808.952 439.489 853.607 424.437C857.238 423.107 861.018 421.777 864.996 420.592C874.495 417.855 885.131 415.899 897.638 416.67C910.472 417.537 923.889 421.199 936.613 425.266C973.184 436.964 1006.12 452.488 1034.45 469.371C1063.4 486.648 1087.56 505.448 1107.18 523.613C1116.4 532.305 1124.79 541.054 1132.58 549.871C1146.98 566.426 1159.34 583.203 1170.98 599.941C1189.42 626.749 1209.34 653.509 1228.69 680.519C1260.63 725.751 1292.89 771.272 1325.64 817.333" stroke="#0A4FFF" stroke-width="2" stroke-miterlimit="3"/>
<path d="M-122.62 307.251C-33.1026 280.048 53.3766 254.233 135.354 228.398C153.946 223.282 172.162 218.155 190.24 213.212C201.797 210.234 213.264 207.343 225 204.597C235.399 202.265 246.58 199.952 260.462 201.629C265.855 202.304 271.326 203.595 276.758 205.387C283.032 207.324 289.325 210.013 295.786 212.913C308.174 218.521 319.207 225.17 326.499 232.079C343.854 248.5 347.139 265.999 352.749 282.332C359.161 300.911 365.771 319.403 372.568 337.808C379.218 354.979 385.946 372.064 392.833 389.053C398.977 404.211 405.528 419.156 412.988 434.921C414.749 438.65 416.471 442.447 418.302 446.253C424.347 459.532 429.69 473.071 437.933 487.082C440.95 492.16 444.522 497.499 451.102 501.999C458.385 506.846 468.171 510.19 477.709 512.878C510.47 522.244 542.747 526.282 570.66 525.607C575.894 525.559 580.999 525.366 585.947 525.039C621.271 522.476 650.905 513.813 676.196 503.762C700.26 493.731 722.295 482.514 744.43 471.144C778.932 451.997 813.751 432.792 857.961 416.025C861.572 414.56 865.342 413.105 869.32 411.794C878.769 408.759 889.376 406.552 901.903 407.188C914.707 407.901 928.104 411.525 940.769 415.601C977.231 427.338 1009.86 443.208 1037.85 460.66C1066.46 478.535 1090.23 498.135 1109.35 517.137C1118.37 526.224 1126.53 535.388 1134.08 544.61C1148.07 561.926 1159.94 579.464 1171.06 596.973C1188.7 624.995 1207.87 652.94 1226.42 681.136C1257.1 728.324 1288.03 775.744 1319.37 823.607" stroke="#084EFF" stroke-width="2" stroke-miterlimit="3"/>
<path d="M-116.436 317.793C-27.6112 287.565 58.9275 258.367 142.102 229.16C160.852 223.137 179.326 217.114 197.779 211.285C209.554 207.71 221.299 204.212 233.301 200.877C243.928 197.996 255.336 195.134 269.466 196.397C274.948 196.898 280.499 198.044 286 199.712C292.372 201.533 298.725 204.115 305.087 206.996C317.455 212.624 328.379 219.581 335.562 226.828C352.66 244.048 355.243 262.414 360.269 279.586C366.008 299.128 372.014 318.622 378.268 338.049C384.343 356.213 390.557 374.329 397.008 392.368C402.757 408.46 408.911 424.418 415.848 440.973C417.49 444.895 419.103 448.865 420.815 452.845C426.494 466.701 431.362 480.751 439.179 495.157C442.039 500.38 445.462 505.853 452.003 510.44C459.157 515.354 468.932 518.698 478.471 521.338C511.024 530.435 543.558 533.654 571.896 532.112C577.2 531.89 582.375 531.505 587.381 530.994C623.23 527.13 653.399 516.964 679.095 505.362C703.594 493.952 725.996 481.31 748.387 468.503C783.434 447.371 818.491 426.056 862.255 407.574C865.857 405.984 869.607 404.394 873.575 402.968C882.984 399.633 893.552 397.176 906.098 397.677C918.872 398.236 932.25 401.831 944.846 405.907C981.209 417.672 1013.52 433.9 1041.16 451.929C1069.43 470.392 1092.82 490.811 1111.46 510.652C1120.27 520.134 1128.21 529.703 1135.52 539.339C1149.09 557.416 1160.47 575.725 1171.07 593.986C1187.92 623.212 1206.32 652.362 1224.07 681.733C1253.5 730.887 1283.11 780.205 1313.03 829.851" stroke="#064CFF" stroke-width="2" stroke-miterlimit="3"/>
<path d="M-110.251 328.345C-22.1197 295.081 64.4882 262.511 148.85 229.931C167.769 223.012 186.499 216.083 205.329 209.377C217.331 205.194 229.353 201.109 241.622 197.177C252.477 193.747 264.123 190.345 278.49 191.183C284.061 191.521 289.701 192.523 295.251 194.045C301.732 195.761 308.124 198.237 314.407 201.099C326.746 206.736 337.571 214.012 344.655 221.586C361.496 239.605 363.376 258.829 367.829 276.849C372.895 297.355 378.297 317.842 384.006 338.299C389.508 357.466 395.217 376.593 401.223 395.692C406.586 412.729 412.335 429.679 418.747 447.024C420.27 451.139 421.774 455.282 423.358 459.426C428.681 473.861 433.054 488.412 440.456 503.222C443.157 508.59 446.432 514.198 452.923 518.881C459.948 523.873 469.714 527.217 479.262 529.799C511.598 538.626 544.399 541.025 573.173 538.626C578.545 538.221 583.78 537.662 588.866 536.949C625.228 531.784 655.941 520.115 682.053 506.971C706.978 494.174 729.756 480.115 752.405 465.873C787.996 442.746 823.29 419.33 866.609 399.142C870.2 397.417 873.931 395.702 877.889 394.15C887.249 390.518 897.787 387.8 910.353 388.176C923.107 388.581 936.455 392.146 948.992 396.222C985.246 408.027 1017.25 424.601 1044.54 443.199C1072.48 462.249 1095.49 483.478 1113.63 504.157C1122.24 514.034 1129.95 524.008 1137.01 534.049C1150.17 552.887 1161.06 571.957 1171.14 590.979C1187.19 621.42 1204.84 651.755 1221.79 682.301C1249.95 733.412 1278.25 784.638 1306.74 836.076" stroke="#044AFF" stroke-width="2" stroke-miterlimit="3"/>
<path d="M-104.067 338.897C-16.628 302.597 70.0492 266.654 155.598 230.701C174.675 222.877 193.673 215.052 212.869 207.459C225.089 202.679 237.388 197.987 249.924 193.467C260.996 189.497 272.88 185.537 287.484 185.97C293.144 186.144 298.863 186.992 304.483 188.389C311.063 189.989 317.515 192.359 323.709 195.202C336.027 200.858 346.743 208.442 353.719 216.353C370.303 235.163 371.48 255.254 375.349 274.122C379.752 295.601 384.531 317.08 389.706 338.559C394.634 358.718 399.828 378.877 405.399 399.036C410.366 417.017 415.709 434.96 421.606 453.105C423.001 457.402 424.407 461.719 425.861 466.046C430.818 481.05 434.717 496.121 441.693 511.327C444.226 516.838 447.352 522.582 453.813 527.352C460.71 532.42 470.466 535.754 480.024 538.289C512.152 546.845 545.21 548.426 574.41 545.169C579.842 544.581 585.155 543.839 590.31 542.943C627.188 536.477 658.445 523.304 684.963 508.609C710.323 494.434 733.476 478.949 756.382 463.271C792.518 438.159 828.049 412.642 870.923 390.73C874.495 388.879 878.225 387.029 882.163 385.362C891.474 381.431 901.982 378.463 914.568 378.704C927.293 378.954 940.621 382.481 953.088 386.567C989.243 398.41 1020.93 415.331 1047.88 434.507C1075.47 454.155 1098.1 476.193 1115.76 497.711C1124.16 507.992 1131.65 518.371 1138.46 528.816C1151.21 548.416 1161.61 568.248 1171.17 588.031C1186.42 619.676 1203.31 651.215 1219.45 682.937C1246.36 736.004 1273.33 789.128 1300.4 842.368" stroke="#0249FF" stroke-width="2" stroke-miterlimit="3"/>
<path d="M-97.8831 349.439C-11.1366 310.113 75.6 270.788 162.346 231.463C193.821 217.192 225.316 202.92 258.226 189.757C269.525 185.238 281.646 180.738 296.488 180.748C322.64 180.767 349.613 195.289 362.792 211.111C379.129 230.721 379.594 251.67 382.879 271.386C386.609 293.828 390.784 316.3 395.415 338.8C404.568 383.3 415.195 427.935 428.374 472.628C432.975 488.209 436.379 503.781 442.939 519.402C445.314 525.058 448.292 530.936 454.704 535.803C461.472 540.939 471.218 544.273 480.776 546.759C518.623 556.588 558.42 555.827 591.745 548.908C629.137 541.141 660.938 526.465 687.872 510.218C754.502 470.026 806.004 420.833 875.227 382.298C887.18 375.649 900.824 369.058 918.773 369.202C931.478 369.299 944.767 372.797 957.184 376.892C1030.16 400.934 1083.95 447.053 1117.87 491.235C1141.42 521.917 1157.33 553.562 1171.19 585.053C1185.65 617.912 1201.78 650.647 1217.12 683.545C1242.75 738.567 1268.42 793.599 1294.07 848.622" stroke="#0047FF" stroke-width="2" stroke-miterlimit="3"/>
</svg>
