<svg width="751" height="325" viewBox="0 0 751 325" fill="none" xmlns="http://www.w3.org/2000/svg">
<path d="M-302 318.348C-229.713 331.569 -148.945 322.655 -83.1899 294.19C-12.1164 263.431 40.3153 211.868 115.193 186.515C131.331 181.051 149.458 176.85 166.334 179.856C182.87 182.805 195.184 192.065 208.693 199.322C264.87 229.502 353.964 223.19 404.746 185.426C442.224 157.558 457.295 118.089 490.017 87.3105C519.896 59.2018 563.303 39.6789 608.855 26.9109C654.396 14.143 702.442 7.60964 750.167 1.13412" stroke="#B79CCA" stroke-miterlimit="3"/>
<path d="M747.654 0.739044C701.336 7.38801 654.668 14.0948 610.398 26.8435C566.137 39.5536 523.914 58.826 494.802 86.4047C462.933 116.556 448.153 155.14 411.637 182.468C401.214 190.476 389.133 197.211 375.828 202.376C365.697 206.308 354.925 209.324 343.872 211.502C303.056 219.529 258.223 216.156 223.337 200.574C219.901 199.042 216.563 197.385 213.332 195.612C201.667 189.223 190.866 181.389 177.513 177.284C175.272 176.59 172.952 176.012 170.546 175.559C153.525 172.36 135.116 176.31 118.764 181.861C108.206 185.455 98.2107 189.685 88.5939 194.291C54.1149 210.856 24.1969 232.287 -6.66247 252.822C-15.2313 258.517 -23.8971 264.154 -32.9511 269.492C-47.8762 278.28 -63.5775 286.211 -80.0844 292.86C-82.2581 293.727 -84.4415 294.575 -86.6347 295.404C-103.015 301.484 -119.988 306.235 -137.397 309.839C-190.14 320.583 -247.016 320.805 -299.535 309.685" stroke="#B79AC9" stroke-miterlimit="3"/>
<path d="M745.15 0.33432C700.23 7.15674 654.94 14.0466 611.941 26.7664C568.961 39.4283 527.932 58.4405 499.576 85.499C468.561 115.034 454.073 152.721 418.507 179.5C408.114 187.749 396.023 194.764 382.485 200.035C372.218 204.024 361.262 206.992 350.044 209.112C308.539 216.908 263.182 213.092 228.014 197.019C224.55 195.429 221.182 193.723 217.922 191.911C206.15 185.349 195.253 177.361 181.764 173.082C179.503 172.36 177.154 171.752 174.728 171.271C157.552 167.879 138.862 171.579 122.316 177.226C111.583 180.888 101.549 185.339 91.9224 190.158C57.3561 207.57 27.8068 229.907 -2.76136 251.318C-11.2428 257.245 -19.8407 263.132 -29.0403 268.606C-44.1012 277.539 -60.2393 285.296 -77.0178 291.55C-79.2304 292.369 -81.4429 293.159 -83.6749 293.93C-100.376 299.548 -117.445 303.633 -134.884 306.611C-187.879 315.312 -244.6 313.674 -297.109 301.051" stroke="#B798C7" stroke-miterlimit="3"/>
<path d="M742.647 -0.0607605C699.124 6.94475 655.212 13.9984 613.494 26.7086C571.795 39.3223 531.959 58.0743 504.361 84.6124C474.2 113.521 460.012 150.322 425.398 176.561C415.033 185.05 402.932 192.355 389.172 197.722C378.779 201.769 367.628 204.689 356.255 206.741C314.071 214.306 268.18 210.037 232.74 193.482C229.247 191.844 225.85 190.09 222.551 188.221C210.673 181.475 199.678 173.342 186.044 168.89C183.753 168.148 181.386 167.503 178.93 166.992C161.608 163.408 142.637 166.857 125.878 172.6C114.96 176.339 104.887 181.013 95.2609 186.024C60.6072 204.294 31.4267 227.517 1.14963 249.815C-7.24449 255.963 -15.7648 262.111 -25.1196 267.71C-40.3164 276.787 -56.8911 284.361 -73.9414 290.229C-76.1928 291 -78.4442 291.733 -80.6955 292.436C-97.7264 297.582 -114.883 301.012 -132.341 303.363C-185.588 310.022 -242.164 306.514 -294.654 292.388" stroke="#B795C6" stroke-miterlimit="3"/>
<path d="M740.133 -0.455841C698.007 6.72312 655.474 13.9503 615.027 26.6411C574.609 39.1971 535.967 57.6985 509.125 83.7066C479.809 111.998 465.922 147.903 432.258 173.593C421.923 182.314 409.812 189.917 395.819 195.38C385.29 199.485 373.955 202.357 362.417 204.352C319.544 211.685 273.129 206.963 237.417 189.917C233.885 188.23 230.469 186.419 227.141 184.501C215.156 177.582 204.064 169.295 190.284 164.67C187.975 163.899 185.578 163.224 183.093 162.685C165.626 158.907 146.373 162.107 129.4 167.936C118.308 171.752 108.187 176.638 98.5699 181.861C63.8386 200.979 35.0074 225.108 5.04088 248.293C-3.26591 254.672 -11.7183 261.061 -21.2187 266.804C-36.5513 276.026 -53.5724 283.417 -70.8847 288.909C-73.1749 289.622 -75.4651 290.306 -77.7456 290.952C-95.0967 295.635 -112.341 298.401 -129.838 300.126C-183.337 304.741 -239.767 299.364 -292.237 283.735" stroke="#B793C5" stroke-miterlimit="3"/>
<path d="M737.63 -0.860565C696.911 6.49184 655.755 13.8924 616.57 26.564C577.433 39.0718 539.984 57.3131 513.899 82.8008C485.437 110.466 471.841 145.484 439.138 170.635C428.833 179.596 416.722 187.488 402.486 193.058C391.83 197.221 380.302 200.044 368.608 201.971C325.046 209.073 278.107 203.899 242.124 186.37C238.562 184.636 235.108 182.776 231.76 180.81C219.678 173.718 208.47 165.277 194.554 160.468C192.225 159.669 189.799 158.965 187.295 158.397C169.672 154.427 150.138 157.375 132.961 163.301C121.695 167.194 111.525 172.292 101.908 177.727C67.0894 197.703 38.627 222.728 8.95157 246.789C0.741825 253.4 -7.65229 260.039 -17.2983 265.908C-32.7667 275.274 -50.2246 282.482 -67.7989 287.589C-70.1279 288.254 -72.4472 288.88 -74.7665 289.468C-92.4378 293.689 -109.779 295.789 -127.305 296.888C-181.056 299.461 -237.331 292.224 -289.782 275.081" stroke="#B791C3" stroke-miterlimit="3"/>
<path d="M735.126 -1.25565C695.805 6.27022 656.027 13.8443 618.123 26.4966C580.267 38.9562 544.012 56.9373 518.684 81.9046C491.075 108.953 477.781 143.075 446.028 167.686C435.752 176.889 423.631 185.07 409.172 190.736C398.381 194.966 386.668 197.732 374.819 199.591C330.568 206.462 283.105 200.844 246.85 182.824C243.259 181.032 239.776 179.124 236.399 177.11C224.21 169.844 212.905 161.249 198.843 156.267C196.485 155.438 194.049 154.706 191.507 154.109C173.739 149.946 153.923 152.654 136.542 158.667C125.091 162.637 114.883 167.956 105.275 173.593C70.3694 194.426 42.2758 220.348 12.8915 245.286C4.7691 252.128 -3.55707 259.018 -13.3486 265.021C-28.9529 274.532 -46.8475 281.566 -64.6935 286.279C-67.0613 286.895 -69.4194 287.464 -71.7678 287.994C-89.7691 291.742 -107.198 293.188 -124.743 293.66C-178.747 294.19 -234.876 285.084 -287.308 266.438" stroke="#B78FC2" stroke-miterlimit="3"/>
<path d="M732.613 -1.65073C694.689 6.05822 656.289 13.7961 619.656 26.4291C583.081 38.8405 548.019 56.5615 523.448 81.0085C496.694 107.431 483.69 140.666 452.889 164.728C442.642 174.162 430.511 182.632 415.819 188.404C404.892 192.692 392.995 195.409 380.981 197.211C336.051 203.841 288.054 197.78 251.527 179.269C247.908 177.428 244.395 175.472 240.988 173.4C228.693 165.951 217.291 157.211 203.084 152.056C200.706 151.198 198.242 150.437 195.68 149.811C177.766 145.455 157.668 147.913 140.075 154.012C128.449 158.05 118.192 163.591 108.584 169.44C73.5912 191.121 45.8566 217.948 16.7828 243.764C8.74776 250.837 0.499195 257.967 -9.4476 264.106C-25.1878 273.761 -43.519 280.612 -61.6367 284.939C-64.0434 285.498 -66.4306 286.018 -68.8178 286.491C-87.1393 289.776 -104.665 290.557 -122.239 290.403C-176.505 288.89 -232.479 277.924 -284.891 257.765" stroke="#B78CC1" stroke-miterlimit="3"/>
<path d="M730.109 -2.04581C693.582 5.83659 656.561 13.7575 621.208 26.3617C585.924 38.7249 552.047 56.1857 528.233 80.1027C502.332 105.908 489.62 138.257 459.779 161.769C449.561 171.444 437.421 180.203 422.505 186.072C411.452 190.418 399.371 193.087 387.192 194.821C341.573 201.22 293.052 194.706 256.244 175.713C252.595 173.824 249.053 171.81 245.618 169.7C233.225 162.078 221.716 153.184 207.373 147.855C204.976 146.968 202.482 146.178 199.891 145.523C181.822 140.974 161.453 143.181 143.646 149.377C131.846 153.492 121.54 159.245 111.933 165.306C76.8519 187.845 49.4861 215.568 20.7035 242.27C12.7557 249.574 4.57509 256.956 -5.51727 263.229C-21.3933 273.029 -40.1612 279.697 -58.541 283.648C-60.9864 284.159 -63.4124 284.621 -65.8288 285.035C-84.4705 287.859 -102.084 287.975 -119.697 287.194C-174.215 283.638 -230.043 270.803 -282.436 249.141" stroke="#B78AC0" stroke-miterlimit="3"/>
<path d="M727.605 -2.45053C692.476 5.60532 656.842 13.6997 622.752 26.2846C588.748 38.59 556.064 55.8002 533.017 79.1969C507.97 104.376 495.559 135.838 466.66 158.801C456.47 168.717 444.321 177.765 429.172 183.74C417.983 188.144 405.717 190.765 393.374 192.441C347.065 198.608 298.02 191.642 260.94 172.167C257.263 170.23 253.691 168.158 250.227 166C237.728 158.204 226.122 149.156 211.633 143.653C209.207 142.738 206.694 141.919 204.074 141.235C185.859 136.494 165.199 138.45 147.188 144.742C135.203 148.934 124.859 154.908 115.261 161.162C80.0932 184.549 53.0864 213.178 24.6046 240.757C16.7442 248.293 8.63152 255.925 -1.60641 262.323C-17.6183 272.268 -36.8229 278.753 -55.4744 282.318C-57.9489 282.781 -60.4235 283.185 -62.869 283.542C-81.831 285.903 -99.5411 285.353 -117.174 283.947C-171.944 278.348 -227.617 263.653 -280 240.478" stroke="#B888BE" stroke-miterlimit="3"/>
<path d="M725.092 -2.84561C691.37 5.38369 657.104 13.6515 624.294 26.2268C591.572 38.484 560.082 55.4341 537.791 78.3104C513.589 102.863 501.478 133.439 473.54 155.862C463.389 166.009 451.22 175.356 435.839 181.427C424.524 185.889 412.064 188.462 399.565 190.071C352.567 196.007 302.998 188.597 265.647 168.621C261.93 166.626 258.34 164.516 254.846 162.299C242.24 154.33 230.527 145.128 215.903 139.452C213.458 138.508 210.915 137.66 208.276 136.947C189.915 132.013 168.974 133.718 150.759 140.107C138.6 144.376 128.206 150.563 118.609 157.028C83.3537 181.273 56.7157 210.789 28.5347 239.254C20.7714 247.011 12.7169 254.894 2.33341 261.436C-13.8241 271.526 -33.4654 277.837 -52.3788 281.008C-54.8922 281.412 -57.3959 281.769 -59.8802 282.058C-79.1721 283.947 -96.9696 282.742 -114.631 280.709C-169.654 273.067 -225.181 256.503 -277.545 231.824" stroke="#B886BD" stroke-miterlimit="3"/>
<path d="M722.588 -3.24072C690.264 5.17167 657.376 13.6033 625.837 26.1593C594.396 38.3683 564.099 55.0582 542.566 77.4045C519.217 101.341 507.398 131.02 480.42 152.904C470.299 163.292 458.12 172.928 442.515 179.095C431.065 183.615 418.42 186.139 405.766 187.681C358.089 193.386 307.986 185.523 270.363 165.065C266.617 163.022 262.998 160.854 259.475 158.599C246.772 150.447 234.953 141.1 220.183 135.241C217.718 134.268 215.146 133.391 212.478 132.649C193.962 127.522 172.749 128.987 154.32 135.453C141.986 139.799 131.545 146.197 121.947 152.875C86.6045 177.977 60.3353 208.389 32.4455 237.731C24.7694 245.72 16.7926 253.853 6.25382 260.521C-10.0395 270.755 -30.1175 276.883 -49.3027 279.668C-51.8549 280.025 -54.3974 280.323 -56.901 280.555C-76.5132 281.981 -94.4077 280.111 -112.089 277.452C-167.364 267.767 -222.746 249.343 -275.09 223.162" stroke="#B883BC" stroke-miterlimit="3"/>
<path d="M720.084 -3.64542C689.157 4.94043 657.648 13.5455 627.38 26.0822C597.22 38.2431 568.117 54.6728 547.34 76.4987C524.846 99.8087 513.327 128.602 487.291 149.936C477.198 160.565 465.019 170.48 449.172 176.754C437.595 181.331 424.757 183.807 411.937 185.291C363.572 190.765 312.945 182.449 275.05 161.509C271.275 159.418 267.626 157.202 264.065 154.889C251.255 146.563 239.339 137.062 224.423 131.03C221.929 130.028 219.338 129.122 216.65 128.351C197.989 123.032 176.494 124.246 157.853 130.808C145.334 135.222 134.854 141.851 125.266 148.732C89.8361 174.682 63.9259 205.999 36.3368 236.228C28.7482 244.448 20.8393 252.831 10.1549 259.625C-6.27425 270.003 -26.7889 275.949 -46.2361 278.358C-48.8272 278.666 -51.4085 278.907 -53.9412 279.08C-73.8737 280.044 -91.8555 277.51 -109.575 274.224C-165.103 262.496 -220.329 242.203 -272.654 214.518" stroke="#B881BA" stroke-miterlimit="3"/>
<path d="M717.581 -4.0405C688.051 4.7188 657.929 13.507 628.933 26.0148C600.053 38.1275 572.144 54.297 552.124 75.6026C530.484 98.2958 519.256 126.193 494.181 146.987C484.117 157.847 471.929 168.062 455.859 174.441C444.146 179.076 431.123 181.504 418.148 182.921C369.094 188.153 317.943 179.394 279.776 157.963C275.972 155.814 272.294 153.55 268.704 151.189C255.787 142.69 243.774 133.034 228.722 126.829C226.209 125.797 223.589 124.863 220.872 124.053C202.065 118.541 180.279 119.505 161.443 126.164C148.75 130.654 138.231 137.496 128.633 144.588C93.1161 171.396 67.5747 203.61 40.2865 234.715C32.7852 243.166 24.9442 251.791 14.1143 258.729C-2.45077 269.251 -23.4021 275.014 -43.121 277.037C-45.7509 277.288 -48.3613 277.481 -50.9329 277.596C-71.1953 278.088 -89.2645 274.898 -107.013 270.986C-162.803 257.216 -217.874 235.062 -270.18 205.865" stroke="#B87FB9" stroke-miterlimit="3"/>
<path d="M715.067 -4.43558C686.935 4.49717 658.191 13.4588 630.466 25.9473C602.868 38.0022 576.152 53.9212 556.889 74.6968C536.103 96.7637 525.166 123.774 501.041 144.02C491.007 155.12 478.809 165.624 462.506 172.099C450.657 176.792 437.45 179.172 424.31 180.531C374.576 185.532 322.892 176.33 284.444 154.407C280.611 152.21 276.904 149.898 273.284 147.479C260.261 138.806 248.141 128.997 232.954 122.618C230.421 121.558 227.771 120.594 225.025 119.756C206.063 114.051 184.006 114.764 164.956 121.509C152.088 126.077 141.521 133.131 131.923 140.435C96.3185 168.1 71.1458 201.21 44.1488 233.193C36.7348 241.875 28.9617 250.75 17.9863 257.813C1.28536 268.49 -20.1027 274.069 -40.0933 275.698C-42.7619 275.9 -45.4112 276.035 -48.0119 276.093C-68.5945 276.122 -86.7607 272.268 -104.529 267.729C-160.571 251.916 -215.497 227.893 -267.783 197.192" stroke="#B87DB8" stroke-miterlimit="3"/>
<path d="M712.564 -4.8403C685.829 4.27553 658.463 13.401 632.019 25.8702C605.701 37.8769 580.179 53.5357 561.673 73.791C541.741 95.2411 531.105 121.355 507.931 141.061C497.926 152.403 485.719 163.196 469.183 169.767C457.208 174.528 443.806 176.85 430.511 178.141C380.088 182.911 327.88 173.256 289.16 150.842C285.298 148.597 281.562 146.226 277.913 143.769C264.793 134.913 252.566 124.959 237.233 118.407C234.671 117.318 232.003 116.325 229.237 115.458C210.129 109.561 187.79 110.023 168.527 116.865C155.475 121.509 144.869 128.775 135.281 136.291C99.5888 164.805 74.7752 198.821 48.079 231.68C40.762 240.593 33.0569 249.719 21.9262 256.917C5.08941 267.739 -16.7353 273.135 -36.988 274.378C-39.6954 274.532 -42.3835 274.6 -45.0133 274.609C-65.9161 274.176 -84.1794 269.656 -101.977 264.491C-158.271 246.635 -213.051 220.752 -265.318 188.539" stroke="#B87AB6" stroke-miterlimit="3"/>
<path d="M710.06 -5.23538C684.732 4.0539 658.734 13.3528 633.562 25.8124C608.525 37.7709 584.197 53.1695 566.448 72.9044C547.36 93.7282 537.025 118.956 514.812 138.122C504.836 149.695 492.618 160.786 475.859 167.455C463.748 172.273 450.172 174.547 436.712 175.771C385.6 180.309 332.868 170.201 293.876 147.305C289.975 145.012 286.22 142.584 282.542 140.078C269.315 131.049 256.991 120.941 241.512 114.215C238.931 113.097 236.243 112.076 233.439 111.179C214.176 105.089 191.555 105.301 172.089 112.239C158.862 116.961 148.207 124.448 138.619 132.157C102.84 161.528 78.3947 196.431 51.9993 230.186C44.7697 239.331 37.1325 248.697 25.8562 256.031C8.88361 266.996 -13.3875 272.21 -33.9022 273.077C-36.6485 273.173 -39.3656 273.193 -42.0343 273.135C-63.267 272.229 -81.608 267.054 -99.4443 261.263C-155.991 241.364 -210.615 213.612 -262.873 179.895" stroke="#B878B5" stroke-miterlimit="3"/>
<path d="M707.547 -5.63049C683.616 3.83224 659.006 13.3046 635.105 25.7449C611.359 37.6552 588.214 52.7937 571.222 72.0083C552.988 92.2153 542.944 116.547 521.682 135.164C511.735 146.978 499.508 158.348 482.516 165.132C470.279 170.008 456.509 172.234 442.884 173.4C391.083 177.708 337.827 167.146 298.564 143.769C294.633 141.418 290.839 138.951 287.142 136.388C273.808 127.185 261.387 116.923 245.763 110.013C243.162 108.867 240.445 107.816 237.621 106.891C218.213 100.608 195.311 100.58 175.64 107.595C162.239 112.394 151.535 120.093 141.948 128.014C106.081 158.233 81.995 194.041 55.9005 228.673C48.7582 238.04 41.1889 247.666 29.7671 255.134C12.6586 266.245 -10.0492 271.285 -30.8356 271.757C-33.6207 271.805 -36.3767 271.766 -39.0745 271.651C-60.6275 270.282 -79.0654 264.443 -96.9211 258.025C-153.72 236.084 -208.199 206.462 -260.437 171.242" stroke="#B876B4" stroke-miterlimit="3"/>
<path d="M705.043 -6.03519C682.51 3.601 659.278 13.2565 636.648 25.6679C614.183 37.53 592.232 52.4083 576.006 71.0929C558.626 90.6736 548.883 114.128 528.572 132.196C518.655 144.251 506.427 155.911 489.193 162.791C476.82 167.725 462.865 169.902 449.085 171.001C396.605 175.077 342.815 164.072 303.28 140.194C299.32 137.795 295.497 135.27 291.771 132.668C278.34 123.292 265.812 112.875 250.043 105.793C247.413 104.617 244.676 103.538 241.823 102.584C222.269 96.1084 199.086 95.8289 179.202 102.94C165.616 107.807 154.874 115.728 145.295 123.861C109.341 154.937 85.6244 191.642 59.821 227.151C52.766 236.749 45.2647 246.626 33.6973 254.219C16.4529 265.474 -6.69155 270.331 -27.7496 270.417C-30.5736 270.417 -33.3684 270.321 -36.0856 270.148C-57.9588 268.317 -76.4938 261.812 -94.3787 254.778C-151.43 230.793 -205.763 199.312 -257.972 162.579" stroke="#B874B3" stroke-miterlimit="3"/>
<path d="M702.539 -6.4303C681.403 3.38898 659.55 13.2083 638.2 25.6004C617.016 37.4047 596.259 52.0325 580.79 70.1967C564.264 89.1511 554.812 111.719 535.462 129.238C525.574 141.524 513.337 153.482 495.879 160.459C483.38 165.45 469.231 167.58 455.286 168.621C402.117 172.456 347.802 161.008 307.986 136.648C303.998 134.2 300.145 131.627 296.39 128.968C282.852 119.418 270.217 108.847 254.322 101.591C251.673 100.387 248.907 99.2787 246.025 98.2958C226.316 91.6275 202.861 91.0976 182.763 98.2958C169.003 103.239 158.212 111.382 148.634 119.717C112.592 151.651 89.244 189.252 63.7414 225.638C56.7835 235.467 49.3501 245.585 37.6274 253.323C20.2472 264.722 -3.33397 269.396 -24.6541 269.097C-27.5168 269.039 -30.3407 268.895 -33.0967 268.664C-55.2999 266.37 -73.9126 259.201 -91.8265 251.54C-149.139 225.513 -203.308 192.162 -255.507 153.925" stroke="#B871B1" stroke-miterlimit="3"/>
<path d="M700.026 -6.82538C680.288 3.16735 659.822 13.1601 639.734 25.5329C619.831 37.2891 600.267 51.6566 585.555 69.3005C569.883 87.6382 560.722 109.31 542.323 126.289C532.464 138.816 520.217 151.064 502.526 158.146C489.891 163.196 475.558 165.277 461.458 166.25C407.6 169.854 352.761 157.953 312.673 133.111C308.656 130.616 304.774 127.985 300.99 125.277C287.346 115.545 274.614 104.829 258.573 97.3996C255.904 96.1662 253.109 95.0291 250.208 94.0173C230.353 87.1563 206.607 86.3758 186.306 93.6704C172.37 98.6909 161.531 107.045 151.953 115.593C115.824 148.375 92.8347 186.881 67.6329 224.154C60.7624 234.214 53.3969 244.583 41.5287 252.446C24.0029 263.99 -0.00526962 268.48 -21.5971 267.806C-24.4986 267.7 -27.3614 267.498 -30.1465 267.209C-52.6699 264.443 -71.3796 256.618 -89.3227 248.331C-146.888 220.261 -200.911 185.05 -253.091 145.311" stroke="#B86FB0" stroke-miterlimit="3"/>
<path d="M697.522 -7.2301C679.191 2.93607 660.093 13.1023 641.277 25.4558C622.654 37.1638 604.284 51.2712 590.33 68.385C575.511 86.0964 566.651 106.882 549.203 123.321C539.373 136.089 527.117 148.626 509.203 155.805C496.432 160.912 481.914 162.945 467.659 163.851C413.112 167.223 357.749 154.87 317.39 129.536C313.343 126.983 309.432 124.313 305.609 121.558C291.868 111.652 279.029 100.782 262.842 93.179C260.154 91.9166 257.33 90.7506 254.4 89.7099C234.399 82.6562 210.372 81.6252 189.867 89.0161C175.747 94.1137 164.869 102.68 155.3 111.44C119.084 145.079 96.4639 184.482 71.5533 222.631C64.77 232.923 57.4725 243.542 45.4587 251.54C27.7971 263.229 3.35224 267.546 -18.5113 266.476C-21.4517 266.322 -24.3435 266.062 -27.1675 265.715C-50.0111 262.487 -68.8178 253.997 -86.79 245.084C-144.608 214.971 -198.485 177.891 -250.645 136.648" stroke="#B86DAF" stroke-miterlimit="3"/>
<path d="M695.019 -7.62518C678.085 2.71444 660.365 13.0541 642.83 25.398C625.488 37.0578 608.312 50.905 595.114 67.4985C581.14 84.5931 572.581 104.482 556.084 120.372C546.283 133.371 534.016 146.197 515.87 153.482C502.973 158.647 488.261 160.632 473.841 161.48C418.614 164.622 362.718 151.825 322.087 126C318.001 123.398 314.071 120.671 310.218 117.867C296.37 107.787 283.435 96.7636 267.103 88.9872C264.385 87.696 261.542 86.5011 258.592 85.4315C238.436 78.1851 214.137 76.9131 193.419 84.3908C179.124 89.5654 168.198 98.3536 158.629 107.306C122.336 141.794 100.074 182.092 75.4642 221.128C68.7684 231.651 61.5387 242.511 49.3794 250.644C31.5819 262.477 6.69064 266.611 -15.4252 265.156C-18.4044 264.944 -21.3351 264.636 -24.1881 264.231C-47.3617 260.54 -66.2558 251.386 -84.2473 241.846C-142.317 209.69 -196.049 170.75 -248.19 127.995" stroke="#B86BAD" stroke-miterlimit="3"/>
<path d="M692.515 -8.02026C676.979 2.50245 660.637 13.0155 644.372 25.3306C628.312 36.9422 612.329 50.5292 599.888 66.6024C586.768 83.0706 578.5 102.073 562.964 117.424C553.192 130.664 540.916 143.779 522.536 151.16C509.504 156.383 494.608 158.32 480.032 159.1C424.116 162.01 367.696 148.76 326.793 122.454C322.679 119.804 318.719 117.019 314.838 114.167C300.883 103.914 287.85 92.7357 271.372 84.7762C268.636 83.456 265.763 82.2323 262.784 81.1337C242.483 73.6946 217.902 72.1721 196.97 79.7365C182.501 84.9786 171.526 93.9884 161.958 103.152C125.577 138.498 103.674 179.693 79.3653 219.606C72.7567 230.36 65.6048 241.47 53.2901 249.738C35.3568 261.716 10.0289 265.667 -12.3587 263.826C-15.3767 263.566 -18.3462 263.2 -21.2283 262.728C-44.7222 258.565 -63.7036 248.755 -81.734 238.589C-140.056 204.39 -193.633 163.581 -245.764 119.322" stroke="#B868AC" stroke-miterlimit="3"/>
<path d="M690.002 -8.42499C675.863 2.27118 660.908 12.9577 645.916 25.2535C631.136 36.8073 616.347 50.1438 604.663 65.6966C592.397 81.5481 584.43 99.6545 569.844 114.456C560.101 127.937 547.816 141.341 529.213 148.828C516.054 154.118 500.964 155.997 486.223 156.72C429.619 159.399 372.675 145.696 331.5 118.898C327.356 116.2 323.368 113.367 319.457 110.466C305.395 100.03 292.256 88.6981 275.642 80.5748C272.886 79.2258 269.985 77.9731 266.976 76.8456C246.53 69.2138 221.658 67.4407 200.522 75.1015C185.869 80.4207 174.864 89.6425 165.296 99.0185C128.828 135.222 107.294 177.313 83.2761 218.112C76.7646 229.088 69.6709 240.458 57.2107 248.852C39.1415 260.974 13.3769 264.742 -9.28242 262.525C-12.3392 262.217 -15.3378 261.793 -18.2588 261.263C-42.0729 256.638 -61.1513 246.163 -79.2108 235.371C-137.795 199.129 -191.217 156.46 -243.328 110.688" stroke="#B866AB" stroke-miterlimit="3"/>
<path d="M687.498 -8.82007C674.756 2.04955 661.18 12.9095 647.458 25.186C633.97 36.6916 620.364 49.7679 609.437 64.7908C598.025 80.0159 590.349 97.2358 576.715 111.497C567.001 125.21 554.715 138.912 535.87 146.496C522.575 151.844 507.31 153.675 492.405 154.33C435.121 156.768 377.643 142.622 336.187 115.342C332.014 112.586 327.996 109.705 324.056 106.756C309.898 96.1469 296.652 84.6606 279.902 76.3638C277.117 74.9858 274.196 73.7042 271.169 72.5479C250.567 64.7233 225.423 62.6997 204.084 70.4568C189.256 75.8531 178.203 85.2966 168.634 94.8749C132.078 131.926 110.904 174.923 87.1966 216.599C80.7724 227.806 73.7466 239.418 61.1408 247.955C42.9358 260.222 16.7345 263.817 -6.19653 261.205C-9.29216 260.839 -12.3296 260.367 -15.2797 259.779C-39.4237 254.691 -58.5895 243.552 -76.6684 232.133C-135.505 193.848 -188.781 149.31 -240.863 102.035" stroke="#B964A9" stroke-miterlimit="3"/>
<path d="M684.994 -9.21515C673.66 1.82792 661.452 12.8614 649.011 25.1186C636.803 36.576 624.391 49.3921 614.231 63.8946C603.673 78.5031 596.288 94.8268 583.614 108.549C573.93 122.502 561.635 136.494 542.566 144.174C529.135 149.58 513.686 151.362 498.625 151.95C440.652 154.157 382.65 139.568 340.922 111.796C336.72 108.992 332.674 106.063 328.705 103.056C314.44 92.2732 301.096 80.6327 284.201 72.1625C281.397 70.7556 278.457 69.445 275.39 68.2598C254.642 60.2425 229.217 57.9683 207.664 65.8122C192.662 71.2856 181.56 80.941 171.992 90.7314C135.349 128.64 114.543 172.533 91.1268 215.086C84.79 226.525 77.8321 238.387 65.0807 247.05C46.7398 259.461 20.1018 262.872 -3.09118 259.875C-6.22563 259.461 -9.30185 258.931 -12.2713 258.285C-36.7356 252.725 -55.9984 240.931 -74.1064 228.885C-133.195 188.558 -186.316 142.16 -238.389 93.3717" stroke="#B962A8" stroke-miterlimit="3"/>
<path d="M682.481 -9.61023C672.544 1.61593 661.714 12.8132 650.544 25.0511C639.617 36.4604 628.399 49.0163 618.996 62.9984C609.292 76.9805 602.208 92.4177 590.475 105.59C580.82 119.784 568.515 134.056 549.213 141.842C535.656 147.305 520.013 149.04 504.787 149.57C446.125 151.545 387.599 136.503 345.6 108.24C341.369 105.388 337.293 102.401 333.295 99.3558C318.923 88.3994 305.483 76.6047 288.442 67.9611C285.618 66.5253 282.649 65.1858 279.563 63.9717C258.66 55.7617 232.953 53.237 211.197 61.1772C196.01 66.7276 184.869 76.5951 175.311 86.5974C138.58 125.364 118.143 170.153 95.0181 213.583C88.7686 225.253 81.8884 237.365 68.9818 246.163C50.505 258.719 23.4303 261.947 -0.0344094 258.565C-3.20768 258.102 -6.31303 257.514 -9.32133 256.811C-34.1058 250.788 -53.456 238.329 -71.6028 225.657C-130.944 183.287 -183.919 135.019 -235.972 84.728" stroke="#B95FA7" stroke-miterlimit="3"/>
<path d="M679.977 -10.015C671.437 1.38465 661.995 12.7554 652.097 24.9837C642.451 36.3447 632.426 48.6405 623.78 62.0926C614.92 75.4484 608.137 90.0087 597.365 102.632C587.739 117.057 575.424 131.627 555.889 139.519C542.197 145.041 526.369 146.727 510.988 147.19C451.637 148.934 392.587 133.439 350.316 104.694C346.046 101.794 341.951 98.7583 337.924 95.6555C323.455 84.516 309.898 72.5768 292.722 63.7597C289.869 62.295 286.88 60.9267 283.765 59.6836C262.716 51.2808 236.728 48.5152 214.758 56.5422C199.396 62.1601 188.207 72.2588 178.649 82.4539C141.831 122.068 121.753 167.753 98.9385 212.08C92.7764 223.981 85.964 236.334 72.9119 245.267C54.2992 257.967 26.7879 261.022 3.05142 257.254C-0.160666 256.734 -3.30482 256.098 -6.34223 255.337C-31.447 248.852 -50.8942 235.727 -69.0604 222.429C-128.654 178.016 -181.483 127.879 -233.517 76.0844" stroke="#B95DA6" stroke-miterlimit="3"/>
<path d="M677.473 -10.41C670.331 1.16303 662.267 12.7168 653.64 24.9162C645.275 36.2195 636.444 48.2647 628.555 61.1965C620.549 73.9355 614.057 87.5996 604.246 99.6738C594.648 114.34 582.324 129.199 562.566 137.187C548.747 142.767 532.726 144.405 517.18 144.81C457.149 146.323 397.566 130.375 355.023 101.148C350.724 98.1898 346.59 95.1062 342.543 91.9552C327.967 80.6423 314.314 68.5489 296.992 59.5487C294.119 58.0551 291.101 56.6578 287.957 55.3858C266.763 46.7904 240.494 43.7742 218.32 51.8879C202.783 57.5829 191.546 67.8936 181.987 78.3007C145.082 118.773 125.373 165.354 102.849 210.557C96.7843 222.689 90.0302 235.293 76.8325 244.361C58.084 257.206 30.1262 260.078 6.13749 255.925C2.88658 255.356 -0.296401 254.662 -3.36293 253.843C-28.7976 246.895 -48.3321 233.106 -66.5275 219.182C-126.373 172.726 -179.057 120.729 -231.072 67.4311" stroke="#B95BA4" stroke-miterlimit="3"/>
<path d="M674.96 -10.8051C669.215 0.941396 662.529 12.6686 655.173 24.8488C648.089 36.1038 640.452 47.8889 633.319 60.3003C626.167 72.413 619.976 85.1906 611.107 96.7251C601.538 111.632 589.204 126.78 569.213 134.865C555.259 140.502 539.053 142.092 523.351 142.43C462.632 143.711 402.525 127.32 359.71 97.5924C355.382 94.5859 351.219 91.4445 347.133 88.2549C332.451 76.7685 318.7 64.5209 301.232 55.3473C298.34 53.8248 295.293 52.3986 292.13 51.0978C270.78 42.3095 244.239 39.0429 221.852 47.2529C206.131 53.025 194.855 63.5477 185.306 74.1668C148.314 115.487 128.973 162.974 106.741 209.054C100.763 221.417 94.0768 234.272 80.7336 243.465C61.8492 256.455 33.4548 259.143 9.19428 254.604C5.90456 253.988 2.69248 253.236 -0.412865 252.349C-26.1678 244.93 -45.7994 230.485 -64.0141 215.934C-124.122 167.435 -176.641 113.569 -228.646 58.7681" stroke="#B959A3" stroke-miterlimit="3"/>
<path d="M672.456 -11.2098C668.118 0.71976 662.8 12.6108 656.726 24.7717C650.923 35.9786 644.479 47.5034 638.103 59.3849C631.805 70.8808 625.905 82.7622 617.996 93.7475C608.467 108.886 596.113 124.333 575.899 132.514C561.819 138.209 545.419 139.751 529.562 140.02C468.154 141.061 407.522 124.227 364.426 94.0173C360.069 90.9626 355.876 87.7731 351.762 84.5257C336.982 72.8659 323.125 60.4641 305.521 51.117C302.6 49.5656 299.534 48.1105 296.341 46.7807C274.846 37.7998 248.014 34.2826 225.423 42.589C209.528 48.4382 198.203 59.1825 188.654 70.0039C151.574 112.182 132.593 160.565 110.671 207.522C104.78 220.107 98.1719 233.212 84.6734 242.54C65.6434 255.684 36.822 258.179 12.2898 253.255C8.96127 252.581 5.71039 251.781 2.57593 250.837C-23.4992 242.954 -43.2182 227.854 -61.4718 212.668C-121.832 162.126 -174.205 106.4 -226.191 50.0859" stroke="#B956A2" stroke-miterlimit="3"/>
<path d="M669.953 -11.6049C667.012 0.498132 663.082 12.5626 658.269 24.7042C653.747 35.8629 648.497 47.1276 642.878 58.4887C637.434 69.3583 631.825 80.3532 624.867 90.7988C615.367 106.178 603.013 121.904 582.557 130.201C568.34 135.954 551.756 137.448 535.734 137.66C473.637 138.469 412.481 121.182 369.113 90.4905C364.727 87.378 360.505 84.1402 356.362 80.8447C341.475 69.0018 327.521 56.4555 309.772 46.9349C306.832 45.3546 303.736 43.8706 300.524 42.5119C278.883 33.3479 251.77 29.5705 228.965 37.9733C212.895 43.8995 201.522 54.8559 191.973 65.8893C154.806 108.925 136.193 158.204 114.562 206.048C108.759 218.864 102.219 232.22 88.5649 241.682C69.3991 254.971 40.141 257.293 15.3371 251.983C11.9697 251.261 8.68971 250.393 5.51644 249.401C-20.8887 241.056 -40.6949 225.291 -58.9776 209.478C-119.59 156.893 -171.818 99.298 -223.774 41.4808" stroke="#B954A0" stroke-miterlimit="3"/>
<path d="M667.449 -12C663.15 22.1603 651.039 56.0411 631.757 87.8502C622.286 103.47 609.922 119.486 589.233 127.879C574.881 133.699 558.112 135.135 541.935 135.279C479.158 135.858 417.469 118.117 373.829 86.9347C353.528 72.4323 336.924 55.1257 314.051 42.7239C291.179 30.3221 258.97 23.5672 232.536 33.319C216.282 39.3223 204.869 50.4907 195.33 61.7361C158.076 105.619 139.822 155.805 118.492 204.525C112.786 217.573 106.304 231.179 92.5046 240.767C70.5829 256.021 35.2402 256.715 8.51487 247.898C-18.2105 239.08 -38.1138 222.66 -56.4159 206.221C-117.281 151.594 -169.363 92.1383 -221.3 32.8083" stroke="#B9529F" stroke-miterlimit="3"/>
</svg>
