<svg width="64" height="72" viewBox="0 0 64 72" fill="none" xmlns="http://www.w3.org/2000/svg">
<g clip-path="url(#clip0_448_1655)">
<path d="M20.93 12.62L13.24 4.08L26.34 11.16L17.55 1.4L33.19 11.3L23.47 0.5L40.97 12.47L31.19 1.6L48.76 13.64L38.97 2.77L56.54 14.81L46.75 3.94" stroke="#DBDADF" stroke-opacity="0.56" stroke-linecap="round" stroke-linejoin="round"/>
<path d="M45.83 25.06L37.24 15.52L50.5 22.79L41.78 13.1L55.11 20.43L46.44 10.81L59.13 17.42L50.65 8.00999L62.73 13.95L54.81 5.14999" stroke="#DBDADF" stroke-opacity="0.56" stroke-linecap="round" stroke-linejoin="round"/>
<path d="M37.44 27.17L30.58 19.56L45.17 28.29L34.83 16.81L54.02 30.64L43.39 18.84" stroke="#DBDADF" stroke-opacity="0.56" stroke-linecap="round" stroke-linejoin="round"/>
<path d="M8.01 52.69L0.5 44.35L24.53 63.57L6.91 44L38.13 71.2L26.58 58.37L42.13 68.17L32.44 57.41L40.63 59.03L30.35 47.62L43.41 54.65L34.46 44.71L49.03 53.42L40.08 43.47L53.63 51.05L39.56 35.42L51.71 41.45L42.99 31.76L56.32 39.1L47.78 29.62L60.71 36.5L52.11 26.94" stroke="#DBDADF" stroke-opacity="0.56" stroke-linecap="round" stroke-linejoin="round"/>
</g>
<defs>
<clipPath id="clip0_448_1655">
<rect width="63.23" height="71.7" fill="white"/>
</clipPath>
</defs>
</svg>
