<svg width="79" height="58" viewBox="0 0 79 58" fill="none" xmlns="http://www.w3.org/2000/svg">
<g id="logo svg" filter="url(#filter0_d_710_879)">
<path id="Vector" d="M5.48657 7.29052L19.584 7.25336" stroke="#ED1C24" stroke-width="3" stroke-miterlimit="10" stroke-linecap="round"/>
<path id="Vector_2" d="M19.5842 16.3437H6.36206V28.3893H19.5842" stroke="#231F20" stroke-width="3" stroke-linecap="round" stroke-linejoin="round"/>
<path id="Vector_3" d="M35.2575 7.29077H30.0169C30.0169 7.29077 24.7764 7.29077 24.7764 12.5654C24.7764 17.2172 30.0169 17.84 30.0169 17.84C30.0169 17.84 35.2575 18.9118 35.2575 23.1147C35.2575 28.3893 30.0169 28.3893 30.0169 28.3893H24.7764" stroke="#231F20" stroke-width="3" stroke-miterlimit="10" stroke-linecap="round"/>
<path id="Vector_4" d="M49.2323 28.3893H44.8652C40.498 28.3893 40.498 23.1147 40.498 23.1147V7.29077" stroke="#231F20" stroke-width="3" stroke-miterlimit="10" stroke-linecap="round"/>
<path id="Vector_5" d="M46.9651 12.5654H40.498" stroke="#231F20" stroke-width="3" stroke-miterlimit="10" stroke-linecap="round"/>
<g id="Group">
<path id="Vector_6" d="M55.469 28.3893V12.5654" stroke="#231F20" stroke-width="3" stroke-miterlimit="10" stroke-linecap="round"/>
<ellipse id="Ellipse" cx="55.4689" cy="7.29078" rx="1.48668" ry="1.49635" fill="#231F20"/>
<g id="Group_2">
<g id="&#38;lt;Mirror Repeat&#38;gt;">
<g id="Clip path group">
<mask id="mask0_710_879" style="mask-type:luminance" maskUnits="userSpaceOnUse" x="58" y="3" width="4" height="9">
<g id="clippath">
<path id="Vector_7" d="M61.267 3H58.6169V11.5797H61.267V3Z" fill="white"/>
</g>
</mask>
<g mask="url(#mask0_710_879)">
<g id="Group_3">
<path id="Vector_8" d="M59.1746 3.56113C59.1746 3.56113 60.7096 4.8218 60.7096 7.29078C60.7096 9.75975 59.1746 11.0204 59.1746 11.0204" stroke="#231F20" stroke-miterlimit="10" stroke-linecap="round"/>
</g>
</g>
</g>
</g>
<g id="&#38;lt;Mirror Repeat&#38;gt;_2">
<g id="Clip path group_2">
<mask id="mask1_710_879" style="mask-type:luminance" maskUnits="userSpaceOnUse" x="49" y="3" width="4" height="9">
<g id="clippath-1">
<path id="Vector_9" d="M52.3209 3H49.6709V11.5797H52.3209V3Z" fill="white"/>
</g>
</mask>
<g mask="url(#mask1_710_879)">
<g id="Group_4">
<path id="Vector_10" d="M51.7635 3.56113C51.7635 3.56113 50.2285 4.8218 50.2285 7.29078C50.2285 9.75975 51.7635 11.0204 51.7635 11.0204" stroke="#231F20" stroke-miterlimit="10" stroke-linecap="round"/>
</g>
</g>
</g>
</g>
</g>
<g id="Group_5">
<g id="&#38;lt;Mirror Repeat&#38;gt;_3">
<g id="Clip path group_3">
<mask id="mask2_710_879" style="mask-type:luminance" maskUnits="userSpaceOnUse" x="57" y="4" width="3" height="6">
<g id="clippath-2">
<path id="Vector_11" d="M59.0258 4.59549H57.0317V9.98609H59.0258V4.59549Z" fill="white"/>
</g>
</mask>
<g mask="url(#mask2_710_879)">
<g id="Group_6">
<path id="Vector_12" d="M57.5894 5.15662C57.5894 5.15662 58.4684 5.8786 58.4684 7.29078C58.4684 8.70296 57.5894 9.42495 57.5894 9.42495" stroke="#231F20" stroke-miterlimit="10" stroke-linecap="round"/>
</g>
</g>
</g>
</g>
<g id="&#38;lt;Mirror Repeat&#38;gt;_4">
<g id="Clip path group_4">
<mask id="mask3_710_879" style="mask-type:luminance" maskUnits="userSpaceOnUse" x="51" y="4" width="3" height="6">
<g id="clippath-3">
<path id="Vector_13" d="M53.9078 4.59549H51.9138V9.98609H53.9078V4.59549Z" fill="white"/>
</g>
</mask>
<g mask="url(#mask3_710_879)">
<g id="Group_7">
<path id="Vector_14" d="M53.3485 5.15662C53.3485 5.15662 52.4695 5.8786 52.4695 7.29078C52.4695 8.70296 53.3485 9.42495 53.3485 9.42495" stroke="#231F20" stroke-miterlimit="10" stroke-linecap="round"/>
</g>
</g>
</g>
</g>
</g>
</g>
<path id="Vector_15" d="M63.9746 28.2284V7.12991L74.3665 28.2284V7.12991" stroke="#231F20" stroke-width="3" stroke-linecap="round" stroke-linejoin="round"/>
<g id="Group_8">
<path id="Vector_16" d="M16.9638 37.2103H11.7232C11.7232 37.2103 6.48267 37.2103 6.48267 41.2841C6.48267 44.8753 11.7232 45.3579 11.7232 45.3579C11.7232 45.3579 16.9638 46.1865 16.9638 49.4317C16.9638 53.5055 11.7232 53.5055 11.7232 53.5055H6.48267" stroke="#231F20" stroke-width="3" stroke-miterlimit="10" stroke-linecap="round"/>
<g id="Group_9">
<path id="Vector_17" d="M22.104 45.4701V40.9437C22.104 38.5009 24.1278 36.492 26.5882 36.492C29.0487 36.492 31.0706 38.4859 31.0706 40.9437C31.0706 43.4014 29.0468 45.3953 26.5882 45.3953L22.104 45.4701Z" stroke="#231F20" stroke-width="3" stroke-linecap="round" stroke-linejoin="round"/>
<path id="Vector_18" d="M22.104 53.5036V45.4701" stroke="#231F20" stroke-width="3" stroke-linecap="round" stroke-linejoin="round"/>
</g>
<path id="Vector_19" d="M58.7174 40.6631C58.7174 37.4085 56.4985 36.492 53.7612 36.492C51.0238 36.492 48.8049 39.1294 48.8049 42.3839V47.4341C48.8049 50.6886 51.0238 53.326 53.7612 53.326C56.4985 53.326 58.7174 51.5303 58.7174 48.2758" stroke="#231F20" stroke-width="3" stroke-miterlimit="10" stroke-linecap="round"/>
<g id="Group_10">
<path id="Vector_20" d="M74.0916 37.0251L63.7666 37.0532V44.7388" stroke="#231F20" stroke-width="3" stroke-linecap="round" stroke-linejoin="round"/>
<path id="Vector_21" d="M74.0916 44.9109H63.7666V53.3279H74.0916" stroke="#231F20" stroke-width="3" stroke-linecap="round" stroke-linejoin="round"/>
</g>
<g id="Group_11">
<g id="Group_12">
<g id="&#38;lt;Mirror Repeat&#38;gt;_5">
<g id="Clip path group_5">
<mask id="mask4_710_879" style="mask-type:luminance" maskUnits="userSpaceOnUse" x="4" y="31" width="37" height="24">
<g id="clippath-4">
<path id="Vector_22" d="M40.4981 31.7018H4.99609V54.9906H40.4981V31.7018Z" fill="white"/>
</g>
</mask>
<g mask="url(#mask4_710_879)">
<g id="Group_13">
<path id="Vector_23" d="M6.48267 33.1982H33.1946L41.0276 53.4943" stroke="#231F20" stroke-width="3" stroke-linecap="round" stroke-linejoin="round"/>
</g>
</g>
</g>
</g>
<g id="&#38;lt;Mirror Repeat&#38;gt;_6">
<g id="Clip path group_6">
<mask id="mask5_710_879" style="mask-type:luminance" maskUnits="userSpaceOnUse" x="40" y="31" width="36" height="24">
<g id="clippath-5">
<path id="Vector_24" d="M76 31.7018H40.498V54.9906H76V31.7018Z" fill="white"/>
</g>
</mask>
<g mask="url(#mask5_710_879)">
<g id="Group_14">
<path id="Vector_25" d="M74.5134 33.1982H47.8015L39.9685 53.4943" stroke="#231F20" stroke-width="3" stroke-linecap="round" stroke-linejoin="round"/>
</g>
</g>
</g>
</g>
</g>
<path id="Vector_26" d="M35.2576 38.4579H44.8652" stroke="#231F20" stroke-width="3" stroke-linecap="round" stroke-linejoin="round"/>
</g>
</g>
</g>
<defs>
<filter id="filter0_d_710_879" x="0.986572" y="0" width="78.0134" height="58.0055" filterUnits="userSpaceOnUse" color-interpolation-filters="sRGB">
<feFlood flood-opacity="0" result="BackgroundImageFix"/>
<feColorMatrix in="SourceAlpha" type="matrix" values="0 0 0 0 0 0 0 0 0 0 0 0 0 0 0 0 0 0 127 0" result="hardAlpha"/>
<feOffset/>
<feGaussianBlur stdDeviation="1.5"/>
<feColorMatrix type="matrix" values="0 0 0 0 0 0 0 0 0 0 0 0 0 0 0 0 0 0 0.65 0"/>
<feBlend mode="normal" in2="BackgroundImageFix" result="effect1_dropShadow_710_879"/>
<feBlend mode="normal" in="SourceGraphic" in2="effect1_dropShadow_710_879" result="shape"/>
</filter>
</defs>
</svg>
