<svg width="180" height="178" viewBox="0 0 180 178" fill="none" xmlns="http://www.w3.org/2000/svg">
<mask id="mask0_448_1645" style="mask-type:luminance" maskUnits="userSpaceOnUse" x="0" y="0" width="180" height="178">
<path d="M180 112.989L66.2326 177.928C65.9803 178.074 65.665 177.991 65.5178 177.741C65.3707 177.492 65.4548 177.18 65.707 177.035L91.6287 161.881L65.5599 176.764C65.3076 176.91 64.9922 176.827 64.8451 176.577C64.6979 176.328 64.782 176.016 65.0343 175.87L69.5438 173.241L65.0133 175.829C64.761 175.974 64.4456 175.891 64.2985 175.642C64.1513 175.392 64.2354 175.081 64.4772 174.935L117.592 143.546L64.0252 174.124C63.7729 174.27 63.4575 174.187 63.3104 173.937C63.1632 173.688 63.2473 173.376 63.4996 173.23L110.77 145.375L63.1212 172.576C62.8689 172.721 62.5535 172.638 62.4064 172.389C62.2592 172.139 62.3433 171.827 62.5956 171.682L63.5837 171.11L62.5956 171.671C62.3433 171.817 62.028 171.734 61.8808 171.484C61.7336 171.235 61.8177 170.923 62.07 170.778L103.77 146.269L61.7652 170.247C61.5129 170.393 61.1975 170.31 61.0504 170.06C60.9032 169.811 60.9873 169.499 61.2396 169.354L101.636 145.625L60.9558 168.844C60.7035 168.99 60.3882 168.907 60.241 168.657C60.0938 168.408 60.1779 168.096 60.4197 167.95L110.518 138.391L59.9992 167.233C59.7469 167.379 59.4316 167.296 59.2844 167.046C59.1373 166.797 59.2214 166.485 59.4736 166.339L81.2748 153.607L59.3475 166.121C59.0952 166.267 58.7799 166.184 58.6327 165.934C58.4855 165.685 58.5696 165.373 58.8219 165.227L83.6189 150.739L58.6853 164.978C58.433 165.123 58.1176 165.04 57.9705 164.791C57.8233 164.541 57.9074 164.23 58.1597 164.084L100.364 139.274L57.8549 163.544C57.6026 163.689 57.2872 163.606 57.1401 163.356C56.9929 163.107 57.077 162.795 57.3293 162.65L78.8781 150.063L57.2031 162.431C56.9508 162.577 56.6355 162.494 56.4883 162.244C56.3412 161.995 56.4253 161.683 56.6775 161.538L62.501 158.149L56.6565 161.486C56.4042 161.631 56.0889 161.548 55.9417 161.298C55.7946 161.049 55.8787 160.737 56.1309 160.592L100.942 134.223L55.7841 159.999C55.5318 160.145 55.2164 160.062 55.0693 159.812C54.9221 159.563 55.0062 159.251 55.2585 159.105L93.4262 136.707L54.9957 158.648C54.7434 158.794 54.4281 158.71 54.2809 158.461C54.1337 158.212 54.2178 157.9 54.4596 157.754L110.255 124.723L53.955 156.86C53.7028 157.006 53.3874 156.923 53.2402 156.673C53.0931 156.424 53.1772 156.112 53.4189 155.967L105.105 125.451L52.9775 155.208C52.7252 155.353 52.4098 155.27 52.2627 155.021C52.1155 154.771 52.1996 154.459 52.4414 154.314L106.356 122.437L51.9683 153.482C51.7161 153.628 51.4007 153.545 51.2535 153.295C51.1064 153.046 51.1905 152.734 51.4428 152.589L93.1634 128.07L51.1379 152.059C50.8856 152.204 50.5703 152.121 50.4231 151.871C50.276 151.622 50.3601 151.31 50.6123 151.165L94.9819 125.056L50.276 150.583C50.0237 150.728 49.7083 150.645 49.5612 150.396C49.414 150.146 49.4981 149.834 49.7504 149.689L60.283 143.556L49.7083 149.595C49.4561 149.741 49.1407 149.658 48.9935 149.408C48.8464 149.159 48.9305 148.847 49.1828 148.701L91.6813 123.715L48.8674 148.161C48.6151 148.306 48.2998 148.223 48.1526 147.974C48.0055 147.724 48.0895 147.413 48.3418 147.267L82.1472 127.457L48.1211 146.882C47.8688 147.028 47.5534 146.945 47.4063 146.695C47.2591 146.446 47.3432 146.134 47.5955 145.989L62.0175 137.58L47.5219 145.853C47.2696 145.999 46.9543 145.916 46.8071 145.666C46.66 145.417 46.7441 145.105 46.9963 144.96L83.5663 123.507L46.7546 144.523C46.5023 144.669 46.1869 144.585 46.0398 144.336C45.8926 144.087 45.9767 143.775 46.229 143.629L72.6027 128.205L46.0713 143.349C45.819 143.494 45.5037 143.411 45.3565 143.162C45.2094 142.912 45.2935 142.6 45.5457 142.455L87.1823 117.988L45.2409 141.935C44.9886 142.081 44.6733 141.997 44.5261 141.748C44.3789 141.499 44.463 141.187 44.7153 141.041L65.2866 129.036L44.6102 140.844C44.3579 140.989 44.0426 140.906 43.8954 140.657C43.7482 140.407 43.8323 140.095 44.0741 139.95L98.7766 107.594L43.5801 139.098C43.3278 139.243 43.0124 139.16 42.8653 138.91C42.7181 138.661 42.8022 138.349 43.0545 138.204L47.0068 135.907L43.044 138.173C42.7917 138.318 42.4763 138.235 42.3292 137.985C42.182 137.736 42.2661 137.424 42.5184 137.279L86.1311 111.627L42.1925 136.707C41.9402 136.853 41.6249 136.769 41.4777 136.52C41.3306 136.271 41.4147 135.959 41.6669 135.813L73.5067 117.167L41.4672 135.46C41.2149 135.605 40.8996 135.522 40.7524 135.273C40.6053 135.023 40.6894 134.711 40.9416 134.566L52.3678 127.904L40.8786 134.462C40.6263 134.607 40.3109 134.524 40.1638 134.275C40.0166 134.025 40.1007 133.714 40.353 133.568L81.9475 109.122L40.0481 133.038C39.7959 133.184 39.4805 133.1 39.3334 132.851C39.1862 132.602 39.2703 132.29 39.5226 132.144L77.9846 109.569L39.2598 131.676C39.0075 131.822 38.6921 131.739 38.545 131.489C38.3978 131.24 38.4819 130.928 38.7342 130.783L60.2095 118.237L38.6081 130.564C38.3558 130.71 38.0404 130.627 37.8933 130.377C37.7461 130.128 37.8302 129.816 38.0825 129.671L67.7673 112.303L37.9038 129.348C37.6515 129.494 37.3361 129.411 37.189 129.161C37.0418 128.912 37.1259 128.6 37.3782 128.454L74.4002 106.732L37.1259 128.008C36.8736 128.153 36.5583 128.07 36.4111 127.82C36.264 127.571 36.3481 127.259 36.6003 127.114L77.6167 103.011L36.306 126.594C36.0537 126.739 35.7384 126.656 35.5912 126.407C35.4441 126.157 35.5281 125.846 35.7804 125.7L73.8115 103.385L35.5176 125.243C35.2654 125.388 34.95 125.305 34.8028 125.056C34.6557 124.806 34.7398 124.494 34.9921 124.349L83.5663 95.7143L34.5926 123.673C34.3403 123.819 34.025 123.736 33.8778 123.486C33.7307 123.237 33.8148 122.925 34.0565 122.779L87.834 90.9852L33.5835 121.958C33.3312 122.104 33.0159 122.021 32.8687 121.771C32.7215 121.522 32.8056 121.21 33.0474 121.065L88.1809 88.4387L32.5534 120.191C32.3011 120.337 31.9857 120.254 31.8386 120.004C31.6914 119.755 31.7755 119.443 32.0278 119.298L38.2507 115.681L32.0067 119.246C31.7545 119.391 31.4391 119.308 31.292 119.059C31.1448 118.809 31.2289 118.497 31.4812 118.352L71.068 95.1011L31.1974 117.863C30.9451 118.009 30.6297 117.926 30.4826 117.676C30.3354 117.427 30.4195 117.115 30.6718 116.969L40.1427 111.45L30.6297 116.886C30.3774 117.032 30.0621 116.949 29.9149 116.699C29.7678 116.45 29.8519 116.138 30.0936 115.992L85.4584 83.2315L29.5996 115.119C29.3473 115.265 29.032 115.182 28.8848 114.932C28.7376 114.683 28.8217 114.371 29.074 114.225C28.8217 114.371 28.5064 114.288 28.3592 114.038C28.212 113.789 28.2961 113.477 28.5484 113.332L34.3719 109.943L28.5274 113.28C28.2751 113.425 27.9598 113.342 27.8126 113.093C27.6654 112.843 27.7495 112.531 28.0018 112.386L70.3532 87.4825L27.6865 111.835C27.4342 111.98 27.1188 111.897 26.9717 111.648C26.8245 111.398 26.9086 111.087 27.1504 110.941L82.1682 78.388L26.6563 110.078C26.404 110.224 26.0887 110.141 25.9415 109.891C25.7944 109.642 25.8785 109.33 26.1307 109.185L39.1441 101.597L26.0677 109.06C25.8154 109.205 25.5 109.122 25.3529 108.873C25.2057 108.623 25.2898 108.311 25.5316 108.166L78.794 76.6835L25.0691 107.355C24.8168 107.501 24.5014 107.418 24.3543 107.168C24.2071 106.919 24.2912 106.607 24.5435 106.461L38.6711 98.2296L24.4804 106.337C24.2281 106.482 23.9128 106.399 23.7656 106.15C23.6185 105.9 23.7026 105.588 23.9548 105.443L50.3601 89.9978L23.7972 105.162C23.5449 105.308 23.2295 105.225 23.0824 104.975C22.9352 104.726 23.0193 104.414 23.2716 104.268L24.6381 103.478L23.2716 104.258C23.0193 104.403 22.704 104.32 22.5568 104.071C22.4096 103.821 22.4937 103.51 22.746 103.364L46.9017 89.2495L22.6093 103.115C22.3571 103.26 22.0417 103.177 21.8946 102.928C21.7474 102.678 21.8315 102.366 22.0838 102.221L32.1119 96.3795L22.0417 102.127C21.7894 102.273 21.4741 102.19 21.3269 101.94C21.1798 101.691 21.2639 101.379 21.5161 101.233L42.2976 89.0935L21.4005 101.025C21.1482 101.171 20.8329 101.088 20.6857 100.838C20.5386 100.589 20.6227 100.277 20.8644 100.132L70.5949 70.8007L20.4545 99.4249C20.2022 99.5704 19.8868 99.4872 19.7397 99.2378C19.5925 98.9883 19.6766 98.6765 19.9289 98.531L38.9129 87.4513L19.8238 98.3543C19.5715 98.4998 19.2561 98.4167 19.109 98.1672C18.9618 97.9178 19.0459 97.606 19.2982 97.4605L58.2543 74.584L19.0249 96.9823C18.7726 97.1279 18.4573 97.0447 18.3101 96.7953C18.1629 96.5458 18.247 96.234 18.4993 96.0885L66.611 67.7345L18.1104 95.4233C17.8581 95.5688 17.5427 95.4857 17.3956 95.2362C17.2484 94.9868 17.3325 94.6749 17.5848 94.5294L25.3634 89.9978L17.5533 94.4567C17.301 94.6022 16.9856 94.519 16.8385 94.2696C16.6913 94.0201 16.7754 93.7083 17.0277 93.5628L61.3342 67.4955L16.6913 92.9808C16.439 93.1263 16.1237 93.0431 15.9765 92.7937C15.8293 92.5442 15.9134 92.2324 16.1552 92.0869L68.5557 61.1345L15.7032 91.3074C15.4509 91.4529 15.1356 91.3698 14.9884 91.1203C14.8413 90.8709 14.9253 90.5591 15.1776 90.4135L63.1317 62.1531L14.7992 89.7483C14.5469 89.8939 14.2316 89.8107 14.0844 89.5613C13.9373 89.3118 14.0213 89 14.2631 88.8545L70.3952 55.6259L13.748 87.9606C13.4958 88.1061 13.1804 88.023 13.0333 87.7735C12.8861 87.5241 12.9702 87.2123 13.2225 87.0668L28.1805 78.3465L13.1384 86.9317C12.8861 87.0772 12.5707 86.994 12.4236 86.7446C12.2764 86.4951 12.3605 86.1833 12.6128 86.0378L16.3024 83.8863L12.5918 86.0066C12.3395 86.1521 12.0241 86.069 11.877 85.8195C11.7298 85.5701 11.8139 85.2583 12.0662 85.1128L41.9297 67.641L11.8875 84.7906C11.6352 84.9361 11.3199 84.8529 11.1727 84.6035C11.0255 84.354 11.1096 84.0422 11.3514 83.8967L60.6194 54.8463L10.952 83.2003C10.6997 83.3458 10.3843 83.2627 10.2372 83.0132C10.09 82.7638 10.1741 82.452 10.4264 82.3065L22.6093 75.2076L10.3633 82.1921C10.111 82.3376 9.79567 82.2545 9.64851 82.0051C9.50135 81.7556 9.58544 81.4438 9.83772 81.2983L23.24 73.4926L9.77465 81.1839C9.52237 81.3295 9.20702 81.2463 9.05986 80.9969C8.91269 80.7474 8.99679 80.4356 9.24907 80.2901L53.9445 53.9837L8.91269 79.6872C8.66042 79.8328 8.34507 79.7496 8.1979 79.5002C8.05074 79.2507 8.13483 78.9389 8.3766 78.7934L62.0175 47.0823L7.68283 77.7124C7.43055 77.858 7.11521 77.7748 6.96804 77.5254C6.82088 77.2759 6.90497 76.9641 7.15725 76.8186L31.6809 62.4857L7.0206 76.5691C6.76832 76.7147 6.45297 76.6315 6.30581 76.3821C6.15865 76.1326 6.24274 75.8208 6.49502 75.6753L46.0818 52.4246L6.20069 75.1764C5.94842 75.3219 5.63307 75.2388 5.4859 74.9893C5.33874 74.7399 5.42283 74.428 5.6646 74.2825L55.4582 44.91L5.25465 73.5654C5.00237 73.7109 4.68702 73.6277 4.53986 73.3783C4.39269 73.1288 4.47679 72.817 4.72907 72.6715L29.9885 57.9021L4.5819 72.4117C4.32962 72.5572 4.01428 72.474 3.86711 72.2246C3.71995 71.9751 3.80404 71.6633 4.05632 71.5178L39.0075 51.0319L3.81455 71.1021C3.56228 71.2476 3.24693 71.1644 3.09976 70.915C2.9526 70.6655 3.03669 70.3537 3.28897 70.2082L41.0678 48.0385L3.02618 69.7509C2.7739 69.8964 2.45855 69.8132 2.31139 69.5638C2.16423 69.3144 2.24832 69.0025 2.5006 68.857L47.2381 42.5298L2.15372 68.2542C1.90144 68.3997 1.58609 68.3166 1.43893 68.0671C1.29176 67.8177 1.37586 67.5058 1.62813 67.3603L32.28 49.4104L1.43893 67.0277C1.18665 67.1732 0.871297 67.0901 0.724135 66.8407C0.576972 66.5912 0.661065 66.2794 0.913344 66.1339L22.3255 53.6303L0.787204 65.9156C0.534925 66.0611 0.219576 65.978 0.0724135 65.7285C-0.0747494 65.4791 0.00934368 65.1673 0.261623 65.0218L114.029 0.071601C114.281 -0.0739107 114.597 0.00923885 114.744 0.258687C114.891 0.508136 114.807 0.819947 114.555 0.965458L93.1424 13.4691L114.67 1.18373C114.922 1.03821 115.238 1.12136 115.385 1.37081C115.532 1.62026 115.448 1.93207 115.196 2.07758L84.5439 20.0275L115.396 2.41018C115.648 2.26467 115.963 2.34782 116.11 2.59727C116.257 2.84672 116.173 3.15853 115.921 3.30404L71.1836 29.6313L116.268 3.90687C116.52 3.76136 116.836 3.84451 116.983 4.09396C117.13 4.34341 117.046 4.65522 116.794 4.80073L79.0148 26.9705L117.056 5.25805C117.309 5.11254 117.624 5.19569 117.771 5.44514C117.918 5.69459 117.834 6.0064 117.582 6.15191L82.6308 26.6379L117.813 6.55726C118.065 6.41175 118.381 6.4949 118.528 6.74435C118.675 6.9938 118.591 7.30561 118.339 7.45112L93.0793 22.2206L118.486 7.71096C118.738 7.56545 119.054 7.6486 119.201 7.89805C119.348 8.1475 119.264 8.45931 119.012 8.60482L69.2179 37.9774L119.421 9.31159C119.674 9.16608 119.989 9.24923 120.136 9.49868C120.283 9.74813 120.199 10.0599 119.947 10.2054L80.3602 33.4561L120.231 10.694C120.483 10.5484 120.798 10.6316 120.946 10.881C121.093 11.1305 121.009 11.4423 120.756 11.5878L96.2328 25.9207L120.904 11.8373C121.156 11.6917 121.471 11.7749 121.618 12.0243C121.766 12.2738 121.681 12.5856 121.44 12.7311L67.7989 44.4423L121.913 13.5522C122.165 13.4067 122.48 13.4899 122.628 13.7393C122.775 13.9888 122.691 14.3006 122.438 14.4461L77.7429 40.7525L122.775 15.0489C123.027 14.9034 123.342 14.9865 123.489 15.236C123.637 15.4854 123.553 15.7973 123.3 15.9428L109.898 23.7484L123.363 16.0571C123.616 15.9116 123.931 15.9947 124.078 16.2442C124.225 16.4936 124.141 16.8054 123.889 16.951L111.706 24.0498L123.952 17.0653C124.204 16.9198 124.52 17.0029 124.667 17.2524C124.814 17.5018 124.73 17.8136 124.478 17.9591L75.2095 47.0095L124.877 18.6555C125.129 18.51 125.445 18.5932 125.592 18.8426C125.739 19.092 125.655 19.4039 125.403 19.5494L95.539 37.0316L125.581 19.882C125.834 19.7365 126.149 19.8196 126.296 20.0691C126.443 20.3185 126.359 20.6303 126.107 20.7758L122.417 22.9273L126.117 20.807C126.37 20.6615 126.685 20.7446 126.832 20.9941C126.979 21.2435 126.895 21.5554 126.643 21.7009L111.685 30.4212L126.727 21.836C126.979 21.6905 127.295 21.7736 127.442 22.0231C127.589 22.2725 127.505 22.5843 127.263 22.7298L71.131 55.9585L127.768 23.6237C128.02 23.4782 128.335 23.5613 128.482 23.8108C128.63 24.0602 128.546 24.372 128.293 24.5176L80.3392 52.778L128.672 25.1828C128.924 25.0372 129.239 25.1204 129.386 25.3698C129.534 25.6193 129.45 25.9311 129.208 26.0766L76.8073 57.029L129.66 26.8561C129.912 26.7106 130.227 26.7938 130.375 27.0432C130.522 27.2927 130.438 27.6045 130.185 27.75L85.8789 53.8174L130.522 28.332C130.774 28.1865 131.089 28.2697 131.237 28.5191C131.384 28.7686 131.3 29.0804 131.047 29.2259L123.269 33.7575L131.079 29.2987C131.331 29.1531 131.646 29.2363 131.794 29.4857C131.941 29.7352 131.857 30.047 131.604 30.1925L83.4927 58.5465L131.993 30.8577C132.246 30.7122 132.561 30.7953 132.708 31.0448C132.855 31.2942 132.771 31.6061 132.519 31.7516L93.5629 54.6281L132.792 32.2297C133.045 32.0842 133.36 32.1673 133.507 32.4168C133.654 32.6662 133.57 32.978 133.318 33.1235L114.334 44.2032L133.423 33.3002C133.675 33.1547 133.991 33.2379 134.138 33.4873C134.285 33.7368 134.201 34.0486 133.949 34.1941L84.218 63.5251L134.358 34.9009C134.611 34.7553 134.926 34.8385 135.073 35.0879C135.22 35.3374 135.136 35.6492 134.884 35.7947L114.103 47.9345L135 36.0026C135.252 35.8571 135.567 35.9402 135.714 36.1897C135.862 36.4391 135.778 36.7509 135.525 36.8964L125.497 42.7377L135.567 36.99C135.82 36.8445 136.135 36.9276 136.282 37.1771C136.429 37.4265 136.345 37.7383 136.093 37.8838L111.937 51.9985L136.23 38.1333C136.482 37.9878 136.797 38.0709 136.944 38.3204C137.092 38.5698 137.007 38.8816 136.755 39.0271L135.389 39.8171L136.755 39.0375C137.007 38.892 137.323 38.9752 137.47 39.2246C137.617 39.4741 137.533 39.7859 137.281 39.9314L110.876 55.3764L137.438 40.212C137.691 40.0665 138.006 40.1497 138.153 40.3991C138.3 40.6486 138.216 40.9604 137.964 41.1059L123.836 49.3377L138.027 41.2306C138.279 41.0851 138.595 41.1682 138.742 41.4177C138.889 41.6671 138.805 41.979 138.563 42.1245L85.3007 73.6069L139.026 42.9352C139.278 42.7897 139.593 42.8728 139.74 43.1223C139.888 43.3717 139.804 43.6835 139.551 43.829L126.538 51.4164L139.614 43.9538C139.867 43.8082 140.182 43.8914 140.329 44.1408C140.476 44.3903 140.392 44.7021 140.15 44.8476L85.1325 77.4006L140.644 45.7103C140.897 45.5648 141.212 45.6479 141.359 45.8974C141.506 46.1468 141.422 46.4586 141.17 46.6041L98.8187 71.5074L141.485 47.155C141.738 47.0095 142.053 47.0926 142.2 47.3421C142.347 47.5915 142.263 47.9034 142.011 48.0489L136.188 51.4372L142.032 48.1008C142.284 47.9553 142.6 48.0385 142.747 48.2879C142.894 48.5374 142.81 48.8492 142.558 48.9947C142.81 48.8492 143.125 48.9323 143.272 49.1818C143.42 49.4312 143.335 49.743 143.094 49.8886L87.7289 82.6495L143.588 50.7616C143.84 50.6161 144.155 50.6993 144.302 50.9487C144.45 51.1982 144.366 51.51 144.113 51.6555L134.642 57.1745L144.155 51.7386C144.408 51.5931 144.723 51.6763 144.87 51.9257C145.017 52.1752 144.933 52.487 144.681 52.6325L105.094 75.8832L144.965 53.121C145.217 52.9755 145.532 53.0586 145.68 53.3081C145.827 53.5575 145.743 53.8693 145.49 54.0148L139.267 57.6319L145.511 54.0668C145.764 53.9213 146.079 54.0045 146.226 54.2539C146.373 54.5033 146.289 54.8152 146.047 54.9607L90.9139 87.5865L146.541 55.8233C146.794 55.6778 147.109 55.761 147.256 56.0104C147.403 56.2599 147.319 56.5717 147.078 56.7172L93.3001 88.5115L147.551 57.5383C147.803 57.3928 148.118 57.4759 148.265 57.7254C148.413 57.9748 148.328 58.2867 148.076 58.4322L99.5019 87.0668L148.476 59.1078C148.728 58.9622 149.043 59.0454 149.19 59.2948C149.338 59.5443 149.253 59.8561 149.001 60.0016L110.97 82.3169L149.253 60.4589C149.506 60.3134 149.821 60.3966 149.968 60.646C150.115 60.8955 150.031 61.2073 149.779 61.3528L108.763 85.4557L150.073 61.8725C150.326 61.727 150.641 61.8101 150.788 62.0596C150.935 62.309 150.851 62.6208 150.599 62.7663L113.577 84.4891L150.851 63.2133C151.104 63.0677 151.419 63.1509 151.566 63.4003C151.713 63.6498 151.629 63.9616 151.377 64.1071L121.692 81.475L151.556 64.4293C151.808 64.2838 152.123 64.367 152.27 64.6164C152.417 64.8659 152.333 65.1777 152.081 65.3232L130.606 77.8684L152.207 65.5415C152.46 65.3959 152.775 65.4791 152.922 65.7285C153.069 65.978 152.985 66.2898 152.733 66.4353L114.271 89.0104L152.996 66.903C153.248 66.7575 153.563 66.8407 153.71 67.0901C153.858 67.3396 153.773 67.6514 153.521 67.7969L111.927 92.2428L153.826 68.327C154.078 68.1814 154.394 68.2646 154.541 68.514C154.688 68.7635 154.604 69.0753 154.352 69.2208L142.925 75.8832L154.415 69.3247C154.667 69.1792 154.982 69.2624 155.129 69.5118C155.277 69.7613 155.193 70.0731 154.94 70.2186L123.101 88.8649L155.14 70.572C155.392 70.4265 155.708 70.5096 155.855 70.7591C156.002 71.0085 155.918 71.3203 155.666 71.4659L112.053 97.1175L155.991 72.0375C156.244 71.892 156.559 71.9751 156.706 72.2246C156.853 72.474 156.769 72.7858 156.517 72.9314L152.565 75.2284L156.528 72.9625C156.78 72.817 157.095 72.9002 157.242 73.1496C157.389 73.3991 157.305 73.7109 157.064 73.8564L102.361 106.212L157.547 74.7087C157.799 74.5632 158.115 74.6463 158.262 74.8958C158.409 75.1452 158.325 75.457 158.073 75.6025L137.501 87.6072L158.178 75.8C158.43 75.6545 158.745 75.7377 158.893 75.9871C159.04 76.2365 158.956 76.5484 158.703 76.6939L117.067 101.161L159.008 77.2136C159.261 77.068 159.576 77.1512 159.723 77.4006C159.87 77.6501 159.786 77.9619 159.534 78.1074L133.16 93.5316L159.692 78.388C159.944 78.2425 160.259 78.3257 160.406 78.5751C160.553 78.8246 160.469 79.1364 160.217 79.2819L123.647 100.734L160.459 79.7184C160.711 79.5729 161.027 79.6561 161.174 79.9055C161.321 80.155 161.237 80.4668 160.984 80.6123L146.562 89.0208L161.058 80.7474C161.31 80.6019 161.626 80.6851 161.773 80.9345C161.92 81.1839 161.836 81.4958 161.584 81.6413L127.778 101.452L161.804 82.0258C162.057 81.8803 162.372 81.9635 162.519 82.2129C162.666 82.4624 162.582 82.7742 162.33 82.9197L119.821 107.906L162.635 83.4602C162.887 83.3147 163.202 83.3978 163.35 83.6473C163.497 83.8967 163.413 84.2085 163.16 84.354L152.628 90.4863L163.213 84.4476C163.465 84.302 163.781 84.3852 163.928 84.6347C164.075 84.8841 163.991 85.1959 163.739 85.3414L119.369 111.45L164.075 85.9235C164.327 85.778 164.643 85.8611 164.79 86.1105C164.937 86.36 164.853 86.6718 164.6 86.8173L122.869 111.346L164.895 87.3578C165.147 87.2123 165.462 87.2954 165.61 87.5449C165.757 87.7943 165.673 88.1061 165.431 88.2517L111.517 120.129L165.904 89.0831C166.156 88.9376 166.472 89.0208 166.619 89.2702C166.766 89.5197 166.682 89.8315 166.44 89.977L114.754 120.493L166.881 90.7357C167.134 90.5902 167.449 90.6734 167.596 90.9228C167.743 91.1723 167.659 91.4841 167.418 91.6296L111.622 124.661L167.922 92.5131C168.174 92.3676 168.49 92.4507 168.637 92.7002C168.784 92.9496 168.7 93.2614 168.448 93.4069L130.28 115.805L168.711 93.8642C168.963 93.7187 169.278 93.8019 169.425 94.0513C169.572 94.3008 169.488 94.6126 169.236 94.7581L124.425 121.127L169.583 95.3505C169.835 95.205 170.151 95.2882 170.298 95.5376C170.445 95.7871 170.361 96.0989 170.109 96.2444L164.285 99.6327L170.13 96.2964C170.382 96.1509 170.697 96.234 170.844 96.4835C170.992 96.7329 170.907 97.0447 170.655 97.1902L149.106 109.777L170.781 97.4085C171.034 97.263 171.349 97.3461 171.496 97.5956C171.643 97.845 171.559 98.1568 171.307 98.3024L129.103 123.112L171.612 98.8428C171.864 98.6973 172.179 98.7805 172.327 99.0299C172.474 99.2794 172.39 99.5912 172.137 99.7367L147.34 114.225L172.274 99.9861C172.526 99.8406 172.842 99.9238 172.989 100.173C173.136 100.423 173.052 100.734 172.8 100.88L150.998 113.612L172.926 101.098C173.178 100.953 173.493 101.036 173.64 101.285C173.788 101.535 173.704 101.847 173.451 101.992L123.353 131.552L173.872 102.709C174.124 102.564 174.439 102.647 174.587 102.896C174.734 103.146 174.65 103.458 174.397 103.603L134.012 127.332L174.692 104.112C174.944 103.967 175.259 104.05 175.406 104.3C175.554 104.549 175.469 104.861 175.217 105.006L133.518 129.515L175.522 105.536C175.774 105.391 176.09 105.474 176.237 105.723C176.384 105.973 176.3 106.285 176.048 106.43L175.06 107.002L176.048 106.441C176.3 106.295 176.615 106.378 176.762 106.628C176.91 106.877 176.825 107.189 176.573 107.334L129.302 135.19L176.952 107.989C177.204 107.844 177.519 107.927 177.666 108.176C177.814 108.426 177.729 108.738 177.488 108.883L124.372 140.272L177.95 109.683C178.202 109.538 178.518 109.621 178.665 109.871C178.812 110.12 178.728 110.432 178.476 110.577L173.966 113.207L178.497 110.619C178.749 110.473 179.064 110.557 179.212 110.806C179.359 111.055 179.275 111.367 179.022 111.513L153.101 126.667L179.17 111.783C179.422 111.637 179.737 111.721 179.884 111.97C180.032 112.22 179.947 112.531 179.695 112.677L180 112.989Z" fill="white"/>
</mask>
<g mask="url(#mask0_448_1645)">
<path d="M69.6384 119.578L70.0063 119.37L69.5859 121.096L71.7723 119.848L69.5543 122.759L73.738 120.368L69.5753 124.733L76.1136 121.002L69.691 126.469L78.2685 121.574L69.9117 128.08L80.3393 122.125L70.2376 129.442L82.1893 122.624L70.8998 131.219L84.7541 123.31L71.6146 132.653L86.9616 123.892L72.3189 133.786L88.8011 124.38L73.5172 135.397L91.5341 125.108L74.7155 136.697L93.9413 125.721L75.6195 137.539L95.6127 126.126L76.5866 138.328L97.3155 126.5L78.4367 139.409L100.143 127.02L80.0449 140.127L102.54 127.29L81.3379 140.636L103.412 128.028L82.82 141.166L103.055 129.619L85.49 142.039L102.687 132.217L87.8761 142.756L102.571 134.368L90.483 143.504L102.645 136.561L92.8166 144.149L102.855 138.422L94.3513 144.565L103.034 139.607L96.8425 145.23L103.286 141.55L99.2497 145.687L102.666 143.744" stroke="#DBDADF" stroke-opacity="0.56" stroke-linecap="round" stroke-linejoin="round"/>
<path d="M93.7626 43.7563L99.05 40.7421L91.0822 46.7705L103.433 39.7131L89.4424 49.3481L106.156 39.8067L87.8446 52.2479L108.931 40.212L89.2111 53.2665L111.286 40.659L91.2819 53.8174L113.482 41.1475L93.132 54.3059L115.396 41.5944L95.6968 54.9815L118.023 42.2388L97.9147 55.5635L120.262 42.8105L99.7543 56.052L122.102 43.2886L102.487 56.7692L124.835 44.0161L104.863 57.4032L126.99 44.7749L106.492 57.8397L127.915 45.6064L108.09 58.2659L128.483 46.6249L110.623 58.9519L128.651 48.6621L112.536 59.4923L127.169 51.1358L113.966 59.9185L125.424 53.3704L115.511 60.407L123.9 55.6155L118.076 61.332L122.218 58.9726L120.136 62.2467L121.303 61.5815" stroke="#DBDADF" stroke-opacity="0.56" stroke-linecap="round" stroke-linejoin="round"/>
<path d="M101.772 88.3348L121.892 76.8498L104.632 88.6882L121.902 78.835L106.829 89.2598L121.692 80.7786L108.353 89.6548L121.45 82.1818L111.086 90.3616L120.883 84.7698L113.22 90.9125L120.368 86.8277L115.543 91.5049L119.768 89.0936L117.351 91.9726L119.285 90.8709" stroke="#DBDADF" stroke-opacity="0.56" stroke-linecap="round" stroke-linejoin="round"/>
<path d="M58.4961 71.31L79.6981 59.2117L62.2067 70.9358L81.7688 59.7626L64.4982 71.3515L83.8291 60.3134L66.7372 72.2974L86.4886 61.0202L67.9145 73.0561L88.202 61.4775L69.4807 74.5216L91.0086 62.2259L70.3953 75.7273L93.0794 62.7767L70.9419 76.6419L94.551 63.1613L71.6567 78.3361L97.0633 63.8265L72.0561 80.2173L99.5861 64.5021L72.0876 82.4312L102.245 65.2089L71.6356 84.6139L104.558 65.8221L70.4794 87.1188L106.755 66.4145" stroke="#DBDADF" stroke-opacity="0.56" stroke-linecap="round" stroke-linejoin="round"/>
<path d="M24.7643 64.1591L44.1687 53.0794L20.7488 67.932L48.8149 51.9049L19.6872 70.177L51.5059 52.0089L19.3823 72.3389L54.1653 52.4766L19.5505 74.0435L56.4043 53.0067L19.9394 75.561L58.4961 53.5471L20.402 76.8394L60.3462 54.0356L21.1588 78.5544L62.911 54.7216L21.8736 79.9991L65.1184 55.3141L22.5043 81.1736L66.9475 55.8026L23.4608 82.9197L69.6805 56.5405L24.3228 84.4268L72.0561 57.1745L24.9114 85.4454L73.6749 57.6111L25.5001 86.464L75.2832 58.0476L26.4356 88.0646L77.827 58.7232L27.1504 89.291L53.913 74.0123L27.697 90.2161L52.1996 76.2262L28.2962 91.2554L51.3587 78.0866L29.3473 93.0432L50.8226 80.789L30.2934 94.6022L50.8962 82.8469L31.3551 96.2444L51.3587 84.8218L32.3537 97.6476L52.042 86.412L33.0685 98.531L52.6096 87.3786L34.4034 99.8718L53.7764 88.8129L35.8015 100.901L55.0378 89.925L37.0734 101.618L56.2151 90.6942L39.2493 102.522L58.3805 91.5984L40.8786 103.063L60.2621 91.9934L42.3923 103.51L62.5326 92.0142L44.1898 104.009L108.931 67.0485L45.6404 104.393L110.35 67.4539L47.5114 104.892L112.147 67.9944L49.1513 105.328L113.661 68.5037L51.8633 106.056L116.005 69.4391L53.4821 106.493L117.267 70.0731L56.2781 107.231L119.127 71.3515L58.5697 107.844L120.304 72.5988L60.0834 108.249L120.904 73.5238L61.5129 108.634L121.345 74.48L64.3301 109.382L121.85 76.5484L65.8963 109.798L98.5034 91.1827L68.1037 110.39L98.3667 93.1159L69.6174 110.796L98.7031 94.1865L72.424 111.544L100.038 95.7767L75.157 112.271L102.456 96.6809L77.6693 112.937L105.01 97.3254L79.8242 113.508L107.207 97.8762L82.0737 114.111L109.488 98.4583L84.2075 114.683L111.664 99.0091L86.1522 115.202L113.64 99.508L87.9287 115.67L115.438 99.9654L90.0941 116.252L116.52 101.171L92.3646 116.855L115.911 103.416L93.9623 117.281L115.48 104.996L95.9911 117.791L114.923 106.981L98.4088 118.362L114.208 109.34L100.017 118.684L113.693 110.879L103.328 119.121L112.4 113.934L106.135 118.975L110.897 116.252" stroke="#DBDADF" stroke-opacity="0.56" stroke-linecap="round" stroke-linejoin="round"/>
</g>
</svg>
